<svg width="24" height="24" viewBox="0 0 24 24" fill="currentColor" xmlns="http://www.w3.org/2000/svg">
<path d="M16.5312 11.75C17 12.25 17.125 12.9375 16.8438 13.5312C16.5938 14.1562 16 14.5625 15.375 14.5625C15.3125 14.5625 15.25 14.5312 15.1875 14.5312C15.4062 14.875 15.5625 15.2812 15.6562 15.6875L16.125 18C16.3125 18.875 15.8125 19.75 14.9375 19.9688C14.8125 20 14.6875 20 14.5625 20C13.8438 20 13.1875 19.4688 13 18.7188L12.5312 16.375L12.1562 16L11.9062 16.75C11.75 17.1562 11.5 17.5625 11.2188 17.875L9.75 19.4688C9.4375 19.8125 9.03125 20 8.59375 20C8.15625 20 7.71875 19.8125 7.4375 19.4688C6.84375 18.8438 6.84375 17.8438 7.4375 17.2188L8.90625 15.5625L9.40625 14.1875L9.84375 12.9688C9.84375 12.9062 9.84375 12.875 9.84375 12.8438C9.5625 13.0938 9.1875 13.2188 8.8125 13.2188C8.28125 13.2188 7.75 12.9375 7.4375 12.5C7.15625 12.0312 7.09375 11.4375 7.3125 10.9062L7.6875 10.0312C8.0625 9.25 8.65625 8.625 9.40625 8.3125L9.6875 8.1875C10.1875 7.96875 10.625 7.78125 11.0938 7.65625C10.8125 7.28125 10.6875 6.8125 10.6875 6.3125C10.6875 5.0625 11.7188 4 13 4C14.25 4 15.3125 5.0625 15.3125 6.3125C15.3125 7.125 14.9062 7.8125 14.3125 8.21875C14.9062 8.6875 15.4062 9.375 15.6562 10.1875L15.9062 11.0938L16.5312 11.75ZM13 5C12.25 5 11.6875 5.59375 11.6875 6.3125C11.6875 7.0625 12.25 7.625 13 7.625C13.7188 7.625 14.3125 7.0625 14.3125 6.3125C14.3125 5.59375 13.7188 5 13 5ZM10.9688 16.4062L11.2812 15.4688L10.3438 14.5312L9.84375 15.9062C9.78125 16.0625 9.71875 16.1875 9.625 16.2812L8.15625 17.875C7.9375 18.125 7.9375 18.5625 8.15625 18.8125C8.28125 18.9375 8.4375 19 8.59375 19C8.75 19 8.90625 18.9375 9 18.8125L10.4688 17.2188C10.6875 16.9688 10.8438 16.6875 10.9688 16.4062ZM15.375 13.5625C15.8125 13.5625 16.25 12.9062 15.8125 12.4062L15.0625 11.625C15.0312 11.5938 15.0312 11.5625 15.0312 11.5312L14.6875 10.4688C14.3438 9.3125 13.3438 8.5 12.1875 8.5C11.3438 8.5 10.875 8.75 9.8125 9.21875C9.28125 9.46875 8.875 9.875 8.59375 10.4375L8.25 11.3125C8.03125 11.8125 8.40625 12.25 8.8125 12.25C9 12.25 9.21875 12.125 9.34375 11.8438L9.6875 11.0312C9.8125 10.75 10 10.5625 10.25 10.4375C10.7812 10.2188 11.0625 10.0625 11.3438 9.96875L10.875 12.1562C10.75 12.6562 10.875 13.1875 11.25 13.625L13.2188 15.625C13.3438 15.7812 13.4688 15.9688 13.5 16.1875L14 18.5C14.0625 18.7812 14.2812 19 14.5625 19C14.625 19 14.6562 19 14.7188 19C15.0312 18.9062 15.25 18.5625 15.1562 18.2188L14.6875 15.9062C14.5625 15.4375 14.3438 15 14.0312 14.6562L12.6875 13.3125L13.3438 10.4375C13.5312 10.7188 13.5312 10.7812 13.875 11.9688C13.9375 12.1875 14.0625 12.4062 14.2188 12.5625L14.9688 13.3438C15.0938 13.5 15.2188 13.5625 15.375 13.5625Z" fill="currentColor"/>
</svg>
