<svg width="24" height="24" viewBox="0 0 24 24" fill="currentColor" xmlns="http://www.w3.org/2000/svg">
<path d="M9.9375 14.875L9.96875 14.9375L11.125 15.9688L10.6875 17.0312C10.5625 17.375 10.3438 17.6875 10.0938 17.9375L8.25 19.7812C8.125 19.9375 7.9375 20 7.71875 20C7.53125 20 7.34375 19.9375 7.21875 19.7812C6.90625 19.5 6.90625 19 7.21875 18.7188L9.03125 16.875C9.15625 16.7812 9.25 16.625 9.3125 16.4688L9.9375 14.875ZM13.4688 7C12.6562 7 11.9688 6.34375 11.9688 5.5C11.9688 4.6875 12.6562 4 13.4688 4C14.3125 4 14.9688 4.6875 14.9688 5.5C14.9688 6.34375 14.3125 7 13.4688 7ZM16.75 12.4688C17.4688 13.1875 16.375 14.2188 15.6875 13.5625L14.7812 12.6562C14.5938 12.4688 14.4375 12.2188 14.3438 11.9688C13.9062 10.625 13.9062 10.5312 13.6562 10.2188L12.8438 13.5L14.5312 15.0625C14.9375 15.4375 15.2188 15.9062 15.3438 16.4688L15.9375 19.0938C16.0312 19.5 15.7812 19.9062 15.375 20C14.9375 20.0938 14.5625 19.8125 14.5 19.4375L13.875 16.7812C13.8125 16.5312 13.6875 16.3125 13.5 16.1562L11.0312 13.875C10.5938 13.375 10.4375 12.75 10.5938 12.1562L11.1875 9.6875C10.8438 9.8125 10.5 9.9375 9.8125 10.2188C9.5 10.3438 9.25 10.5938 9.09375 10.875L8.65625 11.8438C8.25 12.7188 6.875 12.0938 7.3125 11.1875L7.75 10.2188C8.0625 9.59375 8.59375 9.09375 9.25 8.8125C10.5938 8.28125 11.1562 8 12.25 8C13.6562 8 14.9062 8.90625 15.375 10.25L15.7812 11.4688C15.7812 11.5 15.8125 11.5625 15.8438 11.5625L16.75 12.4688Z" fill="currentColor"/>
</svg>
