<svg width="24" height="24" viewBox="0 0 24 24" fill="currentColor" xmlns="http://www.w3.org/2000/svg">
<path d="M13.5 7C12.6562 7 12 6.34375 12 5.5C12 4.6875 12.6562 4 13.5 4C14.3125 4 15 4.6875 15 5.5C15 6.34375 14.3125 7 13.5 7ZM16.4375 11.6875C16.9375 11.9062 17.125 12.5312 16.875 13.0312C16.625 13.5 16.0312 13.7188 15.5625 13.4688L14.8438 13.0938C14.375 12.8438 14 12.4375 13.8438 11.9375L13.6562 11.4375L13.125 13.5625L14.5625 15.125C14.7812 15.375 14.9375 15.6562 15.0312 16L15.7188 18.7812C15.8438 19.3125 15.5312 19.8438 14.9688 19.9688C14.4375 20.125 13.9062 19.7812 13.7812 19.25L13.1875 16.9688C13.125 16.6562 12.9688 16.3438 12.7188 16.0938L10.875 14.0625C10.4062 13.5625 10.2188 12.875 10.4062 12.2188L10.875 10.3125L10.0312 10.6562C9.8125 10.75 9.625 10.9062 9.53125 11.125L9.3125 11.5625C9.0625 12.0625 8.46875 12.25 7.96875 12C7.5 11.75 7.28125 11.1562 7.53125 10.6562L7.75 10.25C8.0625 9.59375 8.625 9.0625 9.3125 8.8125C10.4688 8.34375 11.0938 8 12.2188 8C13.6562 8.03125 14.9375 9 15.4062 10.375L15.7188 11.3125L16.4375 11.6875ZM9.28125 16.0625L9.9375 14.4688C10.2188 14.8438 9.6875 14.25 11.4062 16.125L11 17.1875C10.875 17.4375 10.75 17.6875 10.5625 17.875L8.6875 19.7188C8.3125 20.125 7.65625 20.125 7.28125 19.7188C6.875 19.3438 6.875 18.6875 7.28125 18.3125L8.84375 16.75C9.03125 16.5625 9.1875 16.3125 9.28125 16.0625Z" fill="currentColor"/>
</svg>
