<svg width="24" height="24" viewBox="0 0 24 24" fill="currentColor" xmlns="http://www.w3.org/2000/svg">
<path d="M8.375 12.5625H15.625C15.8125 12.5625 16 12.4062 16 12.1875V11.8125C16 11.625 15.8125 11.4375 15.625 11.4375H8.375C8.15625 11.4375 8 11.625 8 11.8125V12.1875C8 12.4062 8.15625 12.5625 8.375 12.5625ZM19.75 12C19.75 7.71875 16.2812 4.25 12 4.25C7.71875 4.25 4.25 7.71875 4.25 12C4.25 16.2812 7.71875 19.75 12 19.75C16.2812 19.75 19.75 16.2812 19.75 12ZM18.75 12C18.75 15.7188 15.7188 18.75 12 18.75C8.28125 18.75 5.25 15.75 5.25 12C5.25 8.3125 8.25 5.25 12 5.25C15.6875 5.25 18.75 8.28125 18.75 12Z" fill="currentColor"/>
</svg>
