<svg width="24" height="24" viewBox="0 0 24 24" fill="currentColor" xmlns="http://www.w3.org/2000/svg">
<path d="M8.375 12.875H15.625C15.8125 12.875 16 12.7188 16 12.5V11.5C16 11.3125 15.8125 11.125 15.625 11.125H8.375C8.15625 11.125 8 11.3125 8 11.5V12.5C8 12.7188 8.15625 12.875 8.375 12.875ZM19.75 12C19.75 7.71875 16.2812 4.25 12 4.25C7.71875 4.25 4.25 7.71875 4.25 12C4.25 16.2812 7.71875 19.75 12 19.75C16.2812 19.75 19.75 16.2812 19.75 12ZM18.25 12C18.25 15.4688 15.4375 18.25 12 18.25C8.53125 18.25 5.75 15.4688 5.75 12C5.75 8.5625 8.53125 5.75 12 5.75C15.4375 5.75 18.25 8.5625 18.25 12Z" fill="currentColor"/>
</svg>
