<svg width="24" height="24" viewBox="0 0 24 24" fill="currentColor" xmlns="http://www.w3.org/2000/svg">
<path d="M19 10C19 9.72917 18.8958 9.5 18.6875 9.3125C18.5 9.10417 18.2708 9 18 9H6C5.72917 9 5.48958 9.10417 5.28125 9.3125C5.09375 9.5 5 9.72917 5 10V18C5 18.2708 5.09375 18.5 5.28125 18.6875C5.48958 18.8958 5.72917 19 6 19H18C18.2708 19 18.5 18.8958 18.6875 18.6875C18.8958 18.5 19 18.2708 19 18V10ZM18 8C18.5417 8 19.0104 8.19792 19.4062 8.59375C19.8021 8.98958 20 9.45833 20 10V18C20 18.5417 19.8021 19.0104 19.4062 19.4062C19.0104 19.8021 18.5417 20 18 20H6C5.45833 20 4.98958 19.8021 4.59375 19.4062C4.19792 19.0104 4 18.5417 4 18V10C4 9.45833 4.19792 8.98958 4.59375 8.59375C4.98958 8.19792 5.45833 8 6 8H18ZM18 6C18.1458 6 18.2604 6.05208 18.3438 6.15625C18.4479 6.23958 18.5 6.35417 18.5 6.5C18.5 6.64583 18.4479 6.77083 18.3438 6.875C18.2604 6.95833 18.1458 7 18 7H6C5.85417 7 5.72917 6.95833 5.625 6.875C5.54167 6.77083 5.5 6.64583 5.5 6.5C5.5 6.35417 5.54167 6.23958 5.625 6.15625C5.72917 6.05208 5.85417 6 6 6H18ZM16.5 4C16.6458 4 16.7604 4.05208 16.8438 4.15625C16.9479 4.23958 17 4.35417 17 4.5C17 4.64583 16.9479 4.77083 16.8438 4.875C16.7604 4.95833 16.6458 5 16.5 5H7.5C7.35417 5 7.22917 4.95833 7.125 4.875C7.04167 4.77083 7 4.64583 7 4.5C7 4.35417 7.04167 4.23958 7.125 4.15625C7.22917 4.05208 7.35417 4 7.5 4H16.5Z" fill="currentColor"/>
</svg>
