<svg width="24" height="24" viewBox="0 0 24 24" fill="currentColor" xmlns="http://www.w3.org/2000/svg">
<path d="M18.5 11C18.5 10.8542 18.4479 10.7396 18.3438 10.6562C18.2604 10.5521 18.1458 10.5 18 10.5H6C5.85417 10.5 5.72917 10.5521 5.625 10.6562C5.54167 10.7396 5.5 10.8542 5.5 11V18C5.5 18.1458 5.54167 18.2604 5.625 18.3438C5.72917 18.4479 5.85417 18.5 6 18.5H18C18.1458 18.5 18.2604 18.4479 18.3438 18.3438C18.4479 18.2604 18.5 18.1458 18.5 18V11ZM18 9C18.5417 9 19.0104 9.19792 19.4062 9.59375C19.8021 9.98958 20 10.4583 20 11V18C20 18.5417 19.8021 19.0104 19.4062 19.4062C19.0104 19.8021 18.5417 20 18 20H6C5.45833 20 4.98958 19.8021 4.59375 19.4062C4.19792 19.0104 4 18.5417 4 18V11C4 10.4583 4.19792 9.98958 4.59375 9.59375C4.98958 9.19792 5.45833 9 6 9H18ZM17.75 6.5C17.9583 6.5 18.1354 6.57292 18.2812 6.71875C18.4271 6.86458 18.5 7.04167 18.5 7.25C18.5 7.45833 18.4271 7.63542 18.2812 7.78125C18.1354 7.92708 17.9583 8 17.75 8H6.25C6.04167 8 5.86458 7.92708 5.71875 7.78125C5.57292 7.63542 5.5 7.45833 5.5 7.25C5.5 7.04167 5.57292 6.86458 5.71875 6.71875C5.86458 6.57292 6.04167 6.5 6.25 6.5H17.75ZM16.25 4C16.4583 4 16.6354 4.07292 16.7812 4.21875C16.9271 4.36458 17 4.54167 17 4.75C17 4.95833 16.9271 5.13542 16.7812 5.28125C16.6354 5.42708 16.4583 5.5 16.25 5.5H7.75C7.54167 5.5 7.36458 5.42708 7.21875 5.28125C7.07292 5.13542 7 4.95833 7 4.75C7 4.54167 7.07292 4.36458 7.21875 4.21875C7.36458 4.07292 7.54167 4 7.75 4H16.25Z" fill="currentColor"/>
</svg>
