<svg width="24" height="24" viewBox="0 0 24 24" fill="currentColor" xmlns="http://www.w3.org/2000/svg">
<path d="M19.5 11.0937C19.6875 10.375 19.5938 9.53122 19.2188 8.90622C19.3438 8.18747 19.0938 7.37497 18.625 6.81247C18.6875 5.12497 17.6562 3.99997 15.8125 4.03122C15.7188 3.99997 14.6875 4.03122 14.5312 4.03122C12.125 3.99997 10.0938 5.24997 9 5.24997H8.65625C8.46875 5.12497 8.25 4.99997 8 4.99997H5C4.4375 4.99997 4 5.46872 4 5.99997V14C4 14.5625 4.4375 15 5 15H8C8.53125 15 9 14.5625 9 14V13.625C9 13.625 9.03125 13.6562 9.0625 13.6562C9.75 14 10.8438 15.8125 11.5938 16.5312C11.9062 16.8437 12 17.375 12.125 17.9062C12.2812 18.8437 12.625 20 13.5625 20C15.4375 20 16.1562 18.9375 16.1562 17.0937C16.1562 16.1562 15.7812 15.4687 15.5312 14.9375H17.7188C18.9688 14.9375 20 13.8437 20 12.6562C20 12 19.8125 11.5 19.5 11.0937ZM8 14H5V5.99997H8V14ZM17.7188 13.9375H14.2188C14.2188 15.1875 15.1562 15.7812 15.1562 17.0937C15.1562 17.9062 15.1562 19.0312 13.5625 19.0312C12.9375 18.375 13.25 16.7812 12.3125 15.8437C11.4062 14.9375 10.0625 12.6562 9.125 12.6562H9V6.28122H9.125C10.2188 6.28122 12.3125 5.03122 14.5312 5.03122C14.625 5.03122 15.6875 4.99997 15.8125 5.03122C17 5.03122 17.8438 5.59372 17.5938 7.21872C18.0938 7.49997 18.4688 8.46872 18.0625 9.15622C18.75 9.49997 18.75 11 18.25 11.375C18.75 11.5 19 12.0312 19 12.6562C18.9688 13.2812 18.4375 13.9375 17.7188 13.9375ZM7.25 12.5C7.25 12.0937 6.90625 11.75 6.5 11.75C6.0625 11.75 5.75 12.0937 5.75 12.5C5.75 12.9375 6.0625 13.25 6.5 13.25C6.90625 13.25 7.25 12.9375 7.25 12.5Z" fill="currentColor"/>
</svg>
