<svg width="24" height="24" viewBox="0 0 24 24" fill="currentColor" xmlns="http://www.w3.org/2000/svg">
<path d="M18.5625 11.0625C18.6875 10.3438 18.5938 9.65625 18.2812 9.09375C18.375 8.34375 18.1562 7.5625 17.7188 7C17.6875 5.25 16.625 4 14.2188 4C14 4 13.75 4.03125 13.5 4.03125C10.2812 4.03125 9.25 5.25 8 5.25H7.65625C7.46875 5.125 7.25 5 7 5H5C4.4375 5 4 5.46875 4 6V13.5C4 14.0625 4.4375 14.5 5 14.5H7C7.34375 14.5 7.6875 14.3125 7.84375 14H8.0625C8.65625 14.5312 9.5 15.9062 10.2188 16.625C10.6562 17.0625 10.5312 20 12.4688 20C14.25 20 15.4375 19.0312 15.4375 16.75C15.4375 16.1562 15.3125 15.6875 15.1562 15.2812H16.3125C17.8125 15.2812 19 14 19 12.625C19 12 18.8438 11.5312 18.5625 11.0625ZM6 13.25C5.5625 13.25 5.25 12.9375 5.25 12.5C5.25 12.0938 5.5625 11.75 6 11.75C6.40625 11.75 6.75 12.0938 6.75 12.5C6.75 12.9375 6.40625 13.25 6 13.25ZM16.3125 13.7812H13.0625C13.0625 14.9688 13.9375 15.5312 13.9375 16.75C13.9375 17.5 13.9375 18.5 12.4688 18.5C11.875 17.9375 12.1562 16.4375 11.2812 15.5625C10.4375 14.7188 9.21875 12.5 8.3125 12.5H8V6.6875C9.65625 6.6875 11.125 5.53125 13.3438 5.53125H14.5312C15.625 5.53125 16.4375 6.0625 16.1875 7.5625C16.6562 7.84375 17.0312 8.71875 16.625 9.375C17.3125 10 17.2188 10.9688 16.7812 11.4375C17.0938 11.4375 17.5 12.0312 17.5 12.5938C17.4688 13.1875 16.9688 13.7812 16.3125 13.7812Z" fill="currentColor"/>
</svg>
