<svg width="24" height="24" viewBox="0 0 24 24" fill="currentColor" xmlns="http://www.w3.org/2000/svg">
<path d="M4 5.75V13.25C4 13.6875 4.3125 14 4.75 14H7.25C7.65625 14 8 13.6875 8 13.25V5.75C8 5.34375 7.65625 5 7.25 5H4.75C4.3125 5 4 5.34375 4 5.75ZM5.25 12C5.25 11.5938 5.5625 11.25 6 11.25C6.40625 11.25 6.75 11.5938 6.75 12C6.75 12.4375 6.40625 12.75 6 12.75C5.5625 12.75 5.25 12.4375 5.25 12ZM13.75 20C14.5 20 16 19.75 16 17.4688C16 16.1562 15.1875 15.4062 14.9375 14.5H18.125C19.1562 14.5 19.9688 13.6562 20 12.6875C20 12.125 19.75 11.5312 19.375 11.1562C19.6875 10.4375 19.625 9.40625 19.0938 8.6875C19.3438 7.875 19.0938 6.875 18.5625 6.34375C18.7188 5.78125 18.6562 5.3125 18.375 4.9375C17.75 4.03125 16.1562 4 14.8125 4H14.7188C13.2188 4.03125 12 4.5625 11 5C10.5 5.21875 9.84375 5.5 9.34375 5.5C9.15625 5.53125 9 5.6875 9 5.875V12.5625C9 12.6875 9.03125 12.7812 9.09375 12.8438C10.3438 14.0625 10.875 15.3438 11.875 16.375C12.3438 16.8438 12.5 17.5312 12.6875 18.2188C12.8125 18.7812 13.0938 20 13.75 20Z" fill="currentColor"/>
</svg>
