<svg width="24" height="24" viewBox="0 0 24 24" fill="currentColor" xmlns="http://www.w3.org/2000/svg">
<path d="M13.75 16C13.875 16 14 16.125 14 16.25V16.75C14 16.9062 13.875 17 13.75 17H12.25C12.0938 17 12 16.9062 12 16.75V16.25C12 16.125 12.0938 16 12.25 16H13.75ZM15.75 13C15.875 13 16 13.125 16 13.25V13.75C16 13.9062 15.875 14 15.75 14H12.25C12.0938 14 12 13.9062 12 13.75V13.25C12 13.125 12.0938 13 12.25 13H15.75ZM19.75 7C19.875 7 20 7.125 20 7.25V7.75C20 7.90625 19.875 8 19.75 8H12.25C12.0938 8 12 7.90625 12 7.75V7.25C12 7.125 12.0938 7 12.25 7H19.75ZM17.75 10C17.875 10 18 10.125 18 10.25V10.75C18 10.9062 17.875 11 17.75 11H12.25C12.0938 11 12 10.9062 12 10.75V10.25C12 10.125 12.0938 10 12.25 10H17.75ZM7.75 5.125L10.375 7.6875C10.4375 7.75 10.5 7.84375 10.5 7.96875C10.5 8.0625 10.4375 8.15625 10.375 8.21875L10.1875 8.40625C10.125 8.46875 10.0312 8.5 9.9375 8.5C9.84375 8.5 9.75 8.46875 9.65625 8.40625L8 6.78125V18.75C8 18.9062 7.875 19 7.75 19H7.25C7.09375 19 7 18.9062 7 18.75V6.75L5.3125 8.40625C5.21875 8.46875 5.125 8.53125 5.03125 8.53125C4.9375 8.53125 4.84375 8.46875 4.78125 8.40625L4.59375 8.21875C4.53125 8.15625 4.46875 8.0625 4.46875 7.96875C4.46875 7.875 4.53125 7.78125 4.59375 7.6875L7.21875 5.125C7.28125 5.0625 7.375 5.03125 7.5 5.03125C7.59375 5.03125 7.6875 5.0625 7.75 5.125Z" fill="currentColor"/>
</svg>
