<svg width="24" height="24" viewBox="0 0 24 24" fill="currentColor" xmlns="http://www.w3.org/2000/svg">
<path d="M13.5 15.75C13.75 15.75 14 16 14 16.25V16.75C14 17.0312 13.75 17.25 13.5 17.25H11.5C11.2188 17.25 11 17.0312 11 16.75V16.25C11 16 11.2188 15.75 11.5 15.75H13.5ZM4.875 8C4.65625 8 4.5 7.84375 4.5 7.625C4.5 7.53125 4.53125 7.4375 4.59375 7.375L6.71875 5.125C6.78125 5.0625 6.875 5 7 5C7.09375 5 7.1875 5.0625 7.25 5.125L9.375 7.375C9.4375 7.4375 9.5 7.53125 9.5 7.625C9.5 7.84375 9.3125 8 9.125 8H7.75V18.5C7.75 18.7812 7.5 19 7.25 19H6.75C6.46875 19 6.25 18.7812 6.25 18.5V8H4.875ZM17.5 9.75C17.75 9.75 18 10 18 10.25V10.75C18 11.0312 17.75 11.25 17.5 11.25H11.5C11.2188 11.25 11 11.0312 11 10.75V10.25C11 10 11.2188 9.75 11.5 9.75H17.5ZM19.5 6.75C19.75 6.75 20 7 20 7.25V7.75C20 8.03125 19.75 8.25 19.5 8.25H11.5C11.2188 8.25 11 8.03125 11 7.75V7.25C11 7 11.2188 6.75 11.5 6.75H19.5ZM15.5 12.75C15.75 12.75 16 13 16 13.25V13.75C16 14.0312 15.75 14.25 15.5 14.25H11.5C11.2188 14.25 11 14.0312 11 13.75V13.25C11 13 11.2188 12.75 11.5 12.75H15.5Z" fill="currentColor"/>
</svg>
