<svg width="24" height="24" viewBox="0 0 24 24" fill="currentColor" xmlns="http://www.w3.org/2000/svg">
<path d="M13.5 17C13.75 17 14 17.25 14 17.5V18.5C14 18.7812 13.75 19 13.5 19H11.5C11.2188 19 11 18.7812 11 18.5V17.5C11 17.25 11.2188 17 11.5 17H13.5ZM4.5 9C4.03125 9 3.8125 8.46875 4.125 8.15625L6.625 5.15625C6.71875 5.0625 6.84375 5.03125 7 5.03125C7.125 5.03125 7.25 5.0625 7.34375 5.15625L9.84375 8.15625C10.1562 8.46875 9.9375 9 9.5 9H8V18.5C8 18.7812 7.75 19 7.5 19H6.5C6.21875 19 6 18.7812 6 18.5V9H4.5ZM17.5 9C17.75 9 18 9.25 18 9.5V10.5C18 10.7812 17.75 11 17.5 11H11.5C11.2188 11 11 10.7812 11 10.5V9.5C11 9.25 11.2188 9 11.5 9H17.5ZM15.5 13C15.75 13 16 13.25 16 13.5V14.5C16 14.7812 15.75 15 15.5 15H11.5C11.2188 15 11 14.7812 11 14.5V13.5C11 13.25 11.2188 13 11.5 13H15.5ZM19.5 5C19.75 5 20 5.25 20 5.5V6.5C20 6.78125 19.75 7 19.5 7H11.5C11.2188 7 11 6.78125 11 6.5V5.5C11 5.25 11.2188 5 11.5 5H19.5Z" fill="currentColor"/>
</svg>
