<svg width="24" height="24" viewBox="0 0 24 24" fill="currentColor" xmlns="http://www.w3.org/2000/svg">
<path d="M21.8438 9.1875C22.125 9.65625 21.9688 10.2812 21.5 10.5625L5.96875 19.5C5.8125 19.5938 5.625 19.625 5.46875 19.625C5.125 19.625 4.78125 19.4688 4.59375 19.125L2.125 14.8438C1.84375 14.3438 2 13.75 2.46875 13.4688L18 4.53125C18.1563 4.4375 18.3438 4.375 18.5 4.375C18.8438 4.375 19.1875 4.5625 19.375 4.875L21.8438 9.1875ZM5.46875 18.6562L21 9.6875L18.5 5.375L16.3438 6.625L17.7188 9C17.7813 9.125 17.75 9.25 17.625 9.34375L17.1875 9.59375C17.0625 9.65625 16.9375 9.625 16.8438 9.5L15.5 7.125L13.75 8.125L14.625 9.625C14.6875 9.75 14.6563 9.90625 14.5313 9.96875L14.125 10.2188C14 10.2812 13.8438 10.25 13.7813 10.125L12.9063 8.625L11.1875 9.625L12.5313 11.9688C12.625 12.0938 12.5625 12.25 12.4688 12.3125L12.0313 12.5625C11.9063 12.625 11.75 12.5938 11.6875 12.4688L10.3125 10.0938L8.59375 11.0938L9.46875 12.5938C9.53125 12.7188 9.5 12.875 9.375 12.9375L8.9375 13.1875C8.8125 13.25 8.65625 13.2188 8.59375 13.0938L7.71875 11.5938L6 12.5938L7.375 14.9688C7.4375 15.0938 7.40625 15.2188 7.28125 15.3125L6.84375 15.5625C6.71875 15.625 6.5625 15.5938 6.5 15.4688L5.125 13.0938L2.96875 14.3438L5.46875 18.6562Z" fill="currentColor"/>
</svg>
