<svg width="24" height="24" viewBox="0 0 24 24" fill="currentColor" xmlns="http://www.w3.org/2000/svg">
<path d="M21.8438 9.62498C22.125 10.0937 21.9688 10.7187 21.5 11L6.375 19.875C5.84375 20.1875 5.25 19.9375 5 19.5L2.125 14.4062C1.84375 13.9375 2 13.3125 2.5 13.0312L17.5938 4.15623C18.125 3.84373 18.7188 4.09373 18.9688 4.53123L21.8438 9.62498ZM6.0625 18.3125L20.3125 9.93748L17.9062 5.71873L16.4688 6.56248L17.5312 8.46873C17.625 8.59373 17.5625 8.74998 17.4375 8.81248L16.625 9.28123C16.5 9.37498 16.3438 9.31248 16.2812 9.18748L15.2188 7.31248L13.9375 8.06248L14.5312 9.09373C14.5938 9.21873 14.5625 9.37498 14.4375 9.43748L13.625 9.90623C13.5 9.99998 13.3438 9.93748 13.2812 9.81248L12.6875 8.81248L11.4375 9.53123L12.5 11.4375C12.5625 11.5625 12.5312 11.7187 12.4062 11.7812L11.5625 12.25C11.4375 12.3437 11.2812 12.2812 11.2188 12.1562L10.1562 10.2812L8.90625 11.0312L9.46875 12.0625C9.5625 12.1875 9.5 12.3437 9.375 12.4062L8.5625 12.875C8.4375 12.9687 8.28125 12.9062 8.21875 12.7812L7.625 11.7812L6.375 12.5L7.4375 14.4062C7.5 14.5 7.46875 14.6562 7.34375 14.75L6.53125 15.2187C6.40625 15.2812 6.25 15.25 6.1875 15.125L5.09375 13.25L3.65625 14.0937L6.0625 18.3125Z" fill="currentColor"/>
</svg>
