<svg width="24" height="24" viewBox="0 0 24 24" fill="currentColor" xmlns="http://www.w3.org/2000/svg">
<path d="M21.8438 9.25005C22.125 9.7188 21.9688 10.3126 21.5 10.5626L5.96875 19.3751C5.5 19.6563 4.875 19.5001 4.59375 19.0313L2.125 14.7813C1.84375 14.3126 2 13.7188 2.46875 13.4376L4.625 12.2188L6.5 15.4063C6.5625 15.5313 6.71875 15.5626 6.84375 15.5001L7.28125 15.2501C7.40625 15.1876 7.4375 15.0313 7.375 14.9063L5.5 11.7188L7.21875 10.7501L8.09375 12.2501C8.15625 12.3438 8.3125 12.4063 8.4375 12.3438L8.875 12.0938C9 12.0313 9.03125 11.8751 8.96875 11.7501L8.09375 10.2813L9.8125 9.2813L11.6875 12.4688C11.75 12.5938 11.9062 12.6251 12.0312 12.5626L12.4375 12.3126C12.5625 12.2501 12.625 12.0938 12.5312 11.9688L10.6875 8.81255L12.4062 7.81255L13.2812 9.31255C13.3437 9.43755 13.5 9.4688 13.625 9.4063L14.0312 9.1563C14.1562 9.0938 14.1875 8.93755 14.125 8.81255L13.25 7.3438L15 6.3438L16.8437 9.5313C16.9062 9.6563 17.0625 9.68755 17.1875 9.62505L17.625 9.37505C17.75 9.31255 17.7812 9.1563 17.7187 9.0313L15.8437 5.87505L18 4.6563C18.4688 4.37505 19.0938 4.5313 19.375 5.00005L21.8438 9.25005Z" fill="currentColor"/>
</svg>
