<svg width="24" height="24" viewBox="0 0 24 24" fill="none" xmlns="http://www.w3.org/2000/svg">
<path d="M16.6009 11.0134L11.7009 6.11338C11.5009 5.91338 11.4049 5.68004 11.4129 5.41338C11.4209 5.14671 11.5253 4.91338 11.7259 4.71338C11.9259 4.53005 12.1593 4.43405 12.4259 4.42538C12.6926 4.41671 12.9259 4.51271 13.1259 4.71338L19.7259 11.3134C19.8259 11.4134 19.8969 11.5217 19.9389 11.6384C19.9809 11.755 20.0013 11.88 19.9999 12.0134C19.9986 12.1467 19.9776 12.2717 19.9369 12.3884C19.8963 12.505 19.8256 12.6134 19.7249 12.7134L13.1249 19.3134C12.9416 19.4967 12.7123 19.5884 12.4369 19.5884C12.1616 19.5884 11.9243 19.4967 11.7249 19.3134C11.5249 19.1134 11.4249 18.8757 11.4249 18.6004C11.4249 18.325 11.5249 18.0877 11.7249 17.8884L16.6009 13.0134L5.42594 13.0134C5.14261 13.0134 4.90494 12.9174 4.71294 12.7254C4.52094 12.5334 4.42527 12.296 4.42594 12.0134C4.42661 11.7307 4.52261 11.493 4.71394 11.3004C4.90527 11.1077 5.14261 11.012 5.42594 11.0134L16.6009 11.0134Z" fill="currentColor"/>
</svg>
