<svg width="24" height="24" viewBox="0 0 24 24" fill="currentColor" xmlns="http://www.w3.org/2000/svg">
<path d="M9 6.5V10.75L14.5938 6.1875C14.7396 6.0625 14.9167 6 15.125 6C15.375 6 15.5833 6.08333 15.75 6.25C15.9167 6.41667 16 6.625 16 6.875V17.125C16 17.375 15.9167 17.5833 15.75 17.75C15.5833 17.9167 15.375 18 15.125 18C14.9167 18 14.7396 17.9375 14.5938 17.8125L9 13.25V17.5C8.97917 17.8125 8.8125 17.9792 8.5 18C8.1875 17.9792 8.02083 17.8125 8 17.5V6.5C8.02083 6.1875 8.1875 6.02083 8.5 6C8.8125 6.02083 8.97917 6.1875 9 6.5ZM15 7.15625L9.03125 12L15 16.8438V7.15625Z" fill="currentColor"/>
</svg>
