<svg width="24" height="24" viewBox="0 0 24 24" fill="currentColor" xmlns="http://www.w3.org/2000/svg">
<path d="M15.375 17.7812L9 12.4687V16.9999C9 17.2916 8.90625 17.5312 8.71875 17.7187C8.53125 17.9062 8.29167 17.9999 8 17.9999C7.70833 17.9999 7.46875 17.9062 7.28125 17.7187C7.09375 17.5312 7 17.2916 7 16.9999V6.9999C7 6.70824 7.09375 6.46865 7.28125 6.28115C7.46875 6.09365 7.70833 5.9999 8 5.9999C8.29167 5.9999 8.53125 6.09365 8.71875 6.28115C8.90625 6.46865 9 6.70824 9 6.9999V11.5312L15.375 6.21865C15.6875 5.96865 16.0417 5.92699 16.4375 6.09365C16.7917 6.28115 16.9792 6.58324 17 6.9999V16.9999C16.9792 17.4166 16.7917 17.7187 16.4375 17.9062C16.0417 18.0728 15.6875 18.0312 15.375 17.7812Z" fill="currentColor"/>
</svg>
