<svg width="24" height="24" viewBox="0 0 24 24" fill="currentColor" xmlns="http://www.w3.org/2000/svg">
<path d="M17.0312 7.75C16.625 7.75 15.9375 7.375 16.1562 6.5L17.9688 7C17.875 7.46875 17.4688 7.78125 17.0312 7.75ZM18.7188 11.875C19.9062 12.5625 21.375 13.4062 21.8438 15.0312C22.1562 16.2188 21.9375 17.4062 21.2188 18.375C20.4375 19.4062 19.1562 20 17.8125 20H3C2.4375 20 2 19.5625 2 19C2 18.5312 2.3125 18.0938 2.78125 18C6.28125 17.2188 10.0938 16.3438 14.1562 16.0938C13.75 15.6562 13.4688 15.1875 13.1875 14.6562L6.84375 15.5C6.65625 15.5312 6.3125 15.5 6.09375 15.1562C5.9375 14.9062 5.9375 14.625 6.09375 14.375L6.46875 13.8125L2.875 14.5C2.40625 14.5625 2.15625 14.25 2.09375 14.1562C1.9375 13.9062 1.9375 13.625 2.09375 13.375L4.9375 9.28125C5.28125 8.78125 5.9375 8.53125 6.53125 8.6875L12.4688 10.1875V8.59375L10.9688 8C10.3438 7.6875 10.4375 6.90625 10.9375 6.65625L11.9688 6.25L10.7812 5.3125C10.25 4.78125 10.6562 4 11.2812 4H17.8125C18.5625 4 19.3125 4.375 19.7812 5L21.5625 7.34375C21.9688 7.84375 22.0938 8.53125 21.9062 9.15625L21.6562 9.9375C21.5 10.5625 20.9062 11 20.2188 11H19.3125C19 11 18.6562 10.9062 18.4062 10.7188L17.5 10H16.9688V10.2812C16.9688 10.9062 17.7812 11.3438 18.7188 11.875ZM3.28125 13.4062L7.3125 12.6562L8.90625 10.3125L6.28125 9.65625C6.09375 9.625 5.875 9.6875 5.75 9.875L3.28125 13.4062ZM7.25 14.4375L12.8125 13.6875C12.75 13.5 12.4688 12.7188 12.4688 11.2188L9.96875 10.5938L7.25 14.4375ZM17.8125 19C19.5938 19 21.4688 17.4688 20.875 15.2812C20.5312 14.0625 19.3438 13.4062 18.2188 12.75C17.0625 12.0938 15.9688 11.4688 15.9688 10.2812V9.5C15.9688 9.25 16.2188 9 16.4688 9H17.6875C17.7812 9 17.9062 9.0625 18 9.125L19.0312 9.90625C19.0938 9.96875 19.2188 10 19.3125 10H20.2188C20.4375 10 20.6562 9.875 20.7188 9.65625L20.9375 8.875C21.0312 8.5625 20.9688 8.21875 20.7812 7.9375L19 5.59375C18.7188 5.25 18.2812 5 17.8125 5H12.0312L13.25 6C13.375 6.125 13.4375 6.28125 13.4375 6.46875C13.4062 6.625 13.2812 6.78125 13.125 6.84375L11.9688 7.3125L13.1562 7.8125C13.3438 7.875 13.4688 8.0625 13.4688 8.25V11.4375C13.4688 13.5625 14.2188 15.0938 15.75 16.0938C16.1562 16.375 16 17 15.5 17C14 17.0625 10.1875 17.25 3 19H17.8125Z" fill="currentColor"/>
</svg>
