<svg width="24" height="24" viewBox="0 0 24 24" fill="currentColor" xmlns="http://www.w3.org/2000/svg">
<path d="M17.0312 7.75C16.6562 7.75 15.9687 7.375 16.1562 6.53125L18 7C17.875 7.46875 17.5 7.78125 17.0312 7.75ZM19.5937 12.0312C21.125 12.7812 22.0625 14.375 21.9687 16.0312C21.8437 18.2812 19.9062 20.0312 17.5312 20H3.46875C2.65625 20 2 19.3438 2 18.5312C2 17.8438 2.46875 17.2188 3.15625 17.0625C5.5 16.5625 8.625 15.875 13.2187 15.5625C13 15.2812 12.8437 14.9688 12.6875 14.6562L7.03125 15.4062C6.1875 15.5312 5.5625 14.625 6.03125 13.9062L3.1875 14.4375C2.28125 14.5625 1.6875 13.625 2.15625 12.9375L4.90625 8.96875C5.3125 8.40625 6.0625 8.125 6.75 8.3125L12 9.59375V9.21875L10.7812 8.75C9.84375 8.28125 9.84375 7 10.7812 6.53125C10.8125 6.53125 10.7812 6.53125 10.9062 6.46875L10.5312 6.1875C9.65625 5.46875 10.1562 4 11.3125 4H18C18.5625 4 19.1562 4.28125 19.5 4.75L21.5937 7.46875C22.0312 8.03125 22.0937 8.8125 21.7812 9.46875L21.375 10.25C21.0625 10.875 20.4062 11.25 19.6875 11.25H18.8125C18.25 11.25 18 11.0938 17.4687 10.75C17.375 10.6875 17.25 10.625 17.0937 10.5H16.5C16.5312 10.5938 16.5937 10.625 16.6562 10.6562L19.5937 12.0312ZM4.125 12.7188L7.28125 12.125L8.5625 10.3125L6.375 9.75C6.28125 9.71875 6.1875 9.78125 6.15625 9.84375L4.125 12.7188ZM7.96875 13.7812L12.1875 13.1875C12 12.3125 12 11.8125 12 11.1562L10.125 10.6875L7.96875 13.7812ZM17.5312 18.5C19.0625 18.5312 20.4062 17.375 20.4687 15.9688C20.5312 14.875 19.9375 13.875 18.9375 13.4062L16.0312 12.0312C15.375 11.7188 15 11.0938 15 10.4062V9H17.5312C17.5312 9 18.125 9.40625 18.2812 9.5C18.6875 9.75 18.6875 9.75 18.8125 9.75H19.6875C19.8437 9.75 19.9687 9.6875 20.0312 9.5625L20.4375 8.78125C20.5 8.65625 20.5 8.5 20.4062 8.375L18.3125 5.65625C18.25 5.5625 18.125 5.5 18 5.5H12.125L13.875 6.90625L12.0625 7.625L13.5 8.15625V11.5C13.5 12.0938 13.4687 14.3438 15.75 15.9688C16.1875 16.2812 15.9687 16.9375 15.4687 16.9375C9.625 17.1875 6.34375 17.9375 3.46875 18.5312L17.5312 18.5Z" fill="currentColor"/>
</svg>
