<svg width="24" height="24" viewBox="0 0 24 24" fill="currentColor" xmlns="http://www.w3.org/2000/svg">
<path d="M2.5625 12C2.0625 12.0938 1.78125 11.4375 2.15625 11.125L5.84375 7.5C6.5 6.90625 7.5 6.84375 8.25 7.34375L12 10.0938V11.4062C12 12.3125 12.1563 13.1875 12.4375 14H5.5C5.03125 14 4.8125 13.4688 5.125 13.1562L8 11L2.5625 12ZM19.9688 13.0625C21.2812 13.7188 22.0625 15.0625 21.9688 16.5625C21.875 18.5312 20.125 20.0312 18.125 20H2.53125C2.21875 20 2 19.75 2 19.4688C2 19.1875 2.15625 18.9688 2.40625 18.9062C5.21875 18.2812 9.875 17.2188 16 17C14.125 15.75 13 13.6562 13 11.4062V8L11.125 7.25C10.9375 7.15625 10.9375 6.875 11.125 6.78125L13 6L11.0625 4.4375C10.9063 4.28125 11 4 11.25 4H18.6562C18.9688 4 19.2812 4.15625 19.4688 4.40625L21.7812 7.53125C21.9062 7.6875 21.9688 7.90625 21.9688 8.125C21.9688 8.28125 21.9375 8.4375 21.875 8.5625L21.4375 9.46875C21.2812 9.78125 20.9375 10 20.5312 10H19.5625C19.3125 10 19.0625 9.90625 18.875 9.71875L18 9H16V10.1562C16 10.75 16.3125 11.25 16.8125 11.5L19.9688 13.0625ZM17.2813 6.09375C17.125 6.625 17.5313 7 17.9375 7C18.3125 7.03125 18.625 6.78125 18.6875 6.4375L17.2813 6.09375Z" fill="currentColor"/>
</svg>
