<svg width="24" height="24" viewBox="0 0 24 24" fill="currentColor" xmlns="http://www.w3.org/2000/svg">
<path d="M19.5 9.37506C20.3125 9.50006 20.625 10.5001 20.0312 11.0938L16.75 14.3126L17.5312 18.8438C17.6562 19.6563 16.7812 20.2813 16.0625 19.9063L12 17.7501L7.90625 19.9063C7.1875 20.2813 6.3125 19.6563 6.4375 18.8438L7.21875 14.3126L3.9375 11.0938C3.34375 10.5001 3.65625 9.50006 4.46875 9.37506L9.0625 8.71881L11.0937 4.56256C11.4687 3.81256 12.5312 3.84381 12.875 4.56256L14.9375 8.71881L19.5 9.37506ZM15.6562 13.9376L19.3437 10.3751L14.25 9.62506L12 5.00006L9.71875 9.62506L4.625 10.3751L8.3125 13.9376L7.4375 19.0001L12 16.6251L16.5312 19.0001L15.6562 13.9376Z" fill="currentColor"/>
</svg>
