<svg width="24" height="24" viewBox="0 0 24 24" fill="currentColor" xmlns="http://www.w3.org/2000/svg">
<path d="M13.1875 6H10.7812C10.5 6 10.2812 6.25 10.2812 6.5V11H7.34375C7.125 11 7 11.2812 7.15625 11.4375L11.625 15.9375C11.8125 16.125 12.1562 16.125 12.3438 15.9375L16.8125 11.4375C16.9688 11.2812 16.8438 11 16.625 11H13.6875V6.5C13.6875 6.25 13.4688 6 13.1875 6ZM13.1875 5C14.0312 5 14.6875 5.6875 14.6875 6.5V10.0312H16.625C17.75 10.0312 18.3125 11.375 17.5312 12.1562L13.0625 16.625C12.4688 17.2188 11.5 17.2188 10.9375 16.625L6.46875 12.1562C5.65625 11.3438 6.21875 10 7.34375 10H9.28125V6.5C9.28125 5.6875 9.9375 5 10.7812 5H13.1875ZM18 18.625C18 18.8438 17.8125 19 17.625 19H6.375C6.15625 19 6 18.8438 6 18.625V18.375C6 18.1875 6.15625 18 6.375 18H17.625C17.8125 18 18 18.1875 18 18.375V18.625Z" fill="currentColor"/>
</svg>
