<svg width="24" height="24" viewBox="0 0 24 24" fill="currentColor" xmlns="http://www.w3.org/2000/svg">
<path d="M16.5 9.5C17.8125 9.5 18.5 11.125 17.5625 12.0625L13.0625 16.5625C12.4688 17.1562 11.5 17.1562 10.9375 16.5625L6.4375 12.0625C5.46875 11.125 6.15625 9.5 7.5 9.5H9.09375V6.5C9.09375 5.6875 9.78125 5 10.5938 5H13.375C14.1875 5 14.875 5.6875 14.875 6.5V9.5H16.5ZM12 15.5L16.5 11H13.375V6.5H10.5938V11H7.5L12 15.5ZM18 17.875V18.625C18 18.8438 17.8125 19 17.625 19H6.375C6.15625 19 6 18.8438 6 18.625V17.875C6 17.6875 6.15625 17.5 6.375 17.5H17.625C17.8125 17.5 18 17.6875 18 17.875Z" fill="currentColor"/>
</svg>
