<svg width="24" height="24" viewBox="0 0 24 24" fill="currentColor" xmlns="http://www.w3.org/2000/svg">
<path d="M17.25 19H6.75C6.3125 19 6 18.6875 6 18.25V17.5C6 17.0938 6.3125 16.75 6.75 16.75H17.25C17.6562 16.75 18 17.0938 18 17.5V18.25C18 18.6875 17.6562 19 17.25 19ZM10 5.75C10 5.34375 10.3125 5 10.75 5H13.25C13.6562 5 14 5.34375 14 5.75V10H16.7188C17.2812 10 17.5625 10.6875 17.1562 11.0938L12.4062 15.8438C12.1875 16.0625 11.7812 16.0625 11.5625 15.8438L6.8125 11.0938C6.40625 10.6875 6.6875 10 7.25 10H10V5.75Z" fill="currentColor"/>
</svg>
