<svg width="24" height="24" viewBox="0 0 24 24" fill="none" xmlns="http://www.w3.org/2000/svg">
<path d="M5.21875 12.5624C5.0625 12.4062 5 12.2187 5 11.9999C5 11.8124 5.0625 11.6249 5.21875 11.4687L10.7188 6.21866C11.0312 5.93741 11.5 5.93741 11.7812 6.24991C12.0625 6.53116 12.0625 7.03116 11.75 7.31241L7.59375 11.2499H18.25C18.6562 11.2499 19 11.5937 19 11.9999C19 12.4374 18.6562 12.7499 18.25 12.7499H7.59375L11.75 16.7187C12.0625 16.9999 12.0625 17.4687 11.7812 17.7812C11.5 18.0937 11.0312 18.0937 10.7188 17.8124L5.21875 12.5624Z" fill="#222222"/>
</svg>
