<svg width="24" height="24" viewBox="0 0 24 24" fill="currentColor" xmlns="http://www.w3.org/2000/svg">
<path d="M7.75 11.75C8.5 11.75 9.5 12.5 9.5 13.25C9.5 13.625 9.3125 14.25 8.0625 14.25H7.75C6.9375 14.25 6.375 13.75 6.375 13C6.375 12.2812 6.9375 11.75 7.75 11.75ZM8.0625 13.5C8.40625 13.5 8.75 13.5 8.75 13.25C8.75 12.9688 8.15625 12.5 7.75 12.5C7.375 12.5 7.125 12.7188 7.125 13C7.125 13.3125 7.375 13.5 7.75 13.5C7.84375 13.5 7.96875 13.5 8.0625 13.5ZM16.2188 11.75C17.0313 11.75 17.5938 12.2812 17.625 13C17.625 13.75 17.0313 14.25 16.2188 14.25L15.9063 14.2812C14.6563 14.2812 14.5 13.625 14.5 13.25C14.5 12.5 15.4688 11.75 16.2188 11.75ZM16.2188 13.5C16.5938 13.5 16.8438 13.3125 16.8438 13C16.8438 12.7188 16.5938 12.5 16.2188 12.5C15.8125 12.5 15.2188 12.9688 15.2188 13.25C15.2188 13.5 15.5625 13.5 15.9063 13.5C16 13.5 16.125 13.5 16.2188 13.5ZM19.7813 9.09375C20.0312 9.46875 20.0312 9.9375 19.8438 10.3125L19.6563 10.6875C19.5625 10.9375 19.375 11.125 19.125 11.2812C19.3438 11.625 19.5 12.0625 19.5 12.5V16.5C19.5 17.3438 18.8125 18 18 18H17.5C16.6563 18 16 17.3438 16 16.5V16H8V16.5C8 17.3438 7.3125 18 6.5 18H6C5.15625 18 4.5 17.3438 4.5 16.5V12.5C4.5 12.0625 4.625 11.625 4.84375 11.2812C4.59375 11.125 4.4375 10.9375 4.3125 10.6875L4.125 10.3125C3.9375 9.9375 3.9375 9.46875 4.1875 9.09375C4.40625 8.75 4.8125 8.5 5.25 8.5H6.78125L7.03125 7.75C7.375 6.71875 8.34375 6 9.40625 6H14.5625C15.625 6 16.5938 6.71875 16.9375 7.75L17.1875 8.5H18.7188C19.1563 8.5 19.5625 8.75 19.7813 9.09375ZM8 8.0625L7.34375 10H16.625L15.9688 8.0625C15.7813 7.4375 15.2188 7 14.5625 7H9.40625C8.78125 7 8.1875 7.4375 8 8.0625ZM5.1875 10.25C5.25 10.375 5.40625 10.4688 5.53125 10.5C5.75 10.3438 6 10.2188 6.25 10.125L6.46875 9.5H5.25C5.125 9.5 5.0625 9.59375 5.03125 9.625C5 9.65625 4.96875 9.75 5 9.875L5.1875 10.25ZM7 16.5V16H5.5V16.5C5.5 16.7812 5.71875 17 6 17H6.5C6.75 17 7 16.7812 7 16.5ZM18.4688 16.5V16H16.9688V16.5C16.9688 16.7812 17.2188 17 17.4688 17H17.9688C18.25 17 18.4688 16.7812 18.4688 16.5ZM18.4688 12.5C18.4688 11.6875 17.8125 11 16.9688 11H7C6.15625 11 5.5 11.6875 5.5 12.5V15H18.4688V12.5ZM18.9688 9.875C19 9.75 18.9688 9.65625 18.9375 9.625C18.9063 9.59375 18.8438 9.5 18.7188 9.5H17.5L17.7188 10.125C17.9688 10.2188 18.2188 10.3438 18.4375 10.5C18.5625 10.4688 18.7188 10.375 18.7813 10.25L18.9688 9.875Z" fill="currentColor"/>
</svg>
