<svg width="24" height="24" viewBox="0 0 24 24" fill="currentColor" xmlns="http://www.w3.org/2000/svg">
<path d="M19.5938 10.0312C19.8438 10.0312 20.0313 10.25 19.9688 10.4688L19.7813 11.2188C19.75 11.4062 19.5938 11.5312 19.4375 11.5312H19.0625C19.3125 11.9688 19.5 12.4688 19.5 13V17.25C19.5 17.6875 19.1563 18 18.75 18H18.25C17.8125 18 17.5 17.6875 17.5 17.25V16.5H6.5V17.25C6.5 17.6875 6.15625 18 5.75 18H5.25C4.8125 18 4.5 17.6875 4.5 17.25V13C4.5 12.4688 4.65625 11.9688 4.90625 11.5H4.5625C4.375 11.5 4.21875 11.4062 4.1875 11.2188L4 10.4688C3.9375 10.25 4.125 10 4.375 10H6L6.96875 7.59375C7.34375 6.625 8.28125 6 9.28125 6H14.6875C15.6875 6 16.625 6.625 17 7.59375L17.9688 10.0312H19.5938ZM8.375 8.15625L7.59375 10H16.375L15.5938 8.15625C15.4688 7.75 15.0938 7.5 14.6875 7.5H9.28125C8.875 7.5 8.53125 7.75 8.375 8.15625ZM18 14.5V13C18 12.1875 17.3125 11.5 16.5 11.5H7.5C6.65625 11.5 6 12.1875 6 13V14.5C6 14.7812 6.21875 15 6.5 15H17.5C17.75 15 18 14.7812 18 14.5ZM8 12.25C8.59375 12.25 9.5 13.1562 9.5 13.75C9.5 14.3438 8.59375 14.25 8 14.25C7.375 14.25 7 13.875 7 13.25C7 12.6562 7.375 12.25 8 12.25ZM16 12.25C16.5938 12.25 17 12.6562 17 13.25C17 13.875 16.5938 14.25 16 14.25C15.375 14.25 14.5 14.3438 14.5 13.75C14.5 13.1562 15.375 12.25 16 12.25Z" fill="currentColor"/>
</svg>
