<svg width="24" height="24" viewBox="0 0 24 24" fill="currentColor" xmlns="http://www.w3.org/2000/svg">
<path d="M19.5938 9.5C19.8438 9.5 20.0312 9.75 19.9688 9.96875L19.7812 10.7188C19.75 10.9062 19.5938 11 19.4375 11H18.7812C19.2188 11.375 19.5 11.9062 19.5 12.5V14C19.5 14.5312 19.2812 14.9688 19 15.3125V17C19 17.5625 18.5312 18 18 18H17C16.4375 18 16 17.5625 16 17V16H8V17C8 17.5625 7.53125 18 7 18H6C5.4375 18 5 17.5625 5 17V15.3125C4.6875 14.9688 4.5 14.5312 4.5 14V12.5C4.5 11.9062 4.75 11.375 5.1875 11H4.5625C4.375 11 4.21875 10.9062 4.1875 10.7188L4 9.96875C3.9375 9.75 4.125 9.5 4.375 9.5H6.21875L6.75 8.21875C7.28125 6.875 8.5625 6 10 6H13.9688C15.4062 6 16.6875 6.875 17.2188 8.21875L17.75 9.5H19.5938ZM8.59375 8.96875L8 10.5H16L15.375 8.96875C15.125 8.375 14.5938 8 13.9688 8H10C9.375 8 8.84375 8.375 8.59375 8.96875ZM7 14C7.59375 14 8.5 14.0938 8.5 13.5C8.5 12.9062 7.59375 12 7 12C6.375 12 6 12.4062 6 13C6 13.625 6.375 14 7 14ZM17 14C17.5938 14 18 13.625 18 13C18 12.4062 17.5938 12 17 12C16.375 12 15.5 12.9062 15.5 13.5C15.5 14.0938 16.375 14 17 14Z" fill="currentColor"/>
</svg>
