<svg width="24" height="24" viewBox="0 0 24 24" fill="currentColor" xmlns="http://www.w3.org/2000/svg">
<path d="M12 4C14.1562 4 15.9375 5.78125 15.9375 7.9375C15.9375 9.71875 13.3438 12.9062 12.375 14.0938C12.1562 14.3125 11.8125 14.3125 11.5938 14.0938C10.625 12.9062 8.0625 9.71875 8.0625 7.9375C8.0625 5.78125 9.8125 4 12 4ZM12 9.25C12.7188 9.25 13.3125 8.6875 13.3125 7.9375C13.3125 7.21875 12.7188 6.625 12 6.625C11.25 6.625 10.6875 7.21875 10.6875 7.9375C10.6875 8.6875 11.25 9.25 12 9.25ZM3.625 10.75L7.3125 9.28125C7.46875 9.75 7.71875 10.2188 8 10.7188V18L3.65625 19.9688C3.34375 20.125 3 19.875 3 19.5V11.6875C3 11.2812 3.25 10.9062 3.625 10.75ZM12 15.25C12.4375 15.25 12.8438 15.0625 13.125 14.7188C13.75 14 14.4062 13.1875 15 12.3125V20L9 18V12.3125C9.5625 13.1875 10.2188 14 10.8438 14.7188C11.125 15.0625 11.5312 15.25 12 15.25ZM20.3125 9.0625C20.625 8.90625 21 9.15625 21 9.53125V17.3438C21 17.75 20.7188 18.125 20.3438 18.2812L16 20V11L20.3125 9.0625Z" fill="currentColor"/>
</svg>
