<svg width="24" height="24" viewBox="0 0 24 24" fill="currentColor" xmlns="http://www.w3.org/2000/svg">
<path d="M12 13C10.875 13 10 12.125 10 11C10 11 10 10.9688 10 10.9375C10.1562 10.9688 10.3125 11 10.5 11C11.3125 11 11.9688 10.3438 11.9688 9.53125C11.9688 9.34375 11.9375 9.1875 11.9062 9.03125C11.9375 9.03125 11.9688 9 12 9C13.0938 9 14 9.90625 14 11C14 12.125 13.0938 13 12 13ZM20.875 11.5625C20.9375 11.6875 20.9688 11.8438 20.9688 12.0312C20.9688 12.1875 20.9375 12.3438 20.875 12.4688C19.1875 15.7812 15.8125 18 12 18C8.15625 18 4.78125 15.7812 3.09375 12.4688C3.03125 12.3438 3 12.1875 3 12C3 11.8438 3.03125 11.6875 3.09375 11.5625C4.78125 8.25 8.15625 6 12 6C15.8125 6 19.1875 8.25 20.875 11.5625ZM12 7C9.78125 7.03125 8 8.8125 8 11C8 13.2188 9.78125 15 12 15C14.1875 15 16 13.2188 16 11C16 8.8125 14.1875 7 12 7ZM12 17C15.3438 17 18.4062 15.0938 20 12C19.0938 10.2812 17.6875 8.84375 15.9375 7.96875C16.5938 8.8125 17 9.875 17 11C17 13.7812 14.75 16 12 16C9.21875 16 7 13.7812 7 11C7 9.875 7.375 8.8125 8.03125 7.96875C6.28125 8.84375 4.875 10.2812 4 12C5.5625 15.0938 8.625 17 12 17Z" fill="currentColor"/>
</svg>
