<svg width="24" height="24" viewBox="0 0 24 24" fill="currentColor" xmlns="http://www.w3.org/2000/svg">
<path d="M20.875 11.5625C20.9375 11.6875 20.9688 11.8438 20.9688 12.0312C20.9688 12.1875 20.9375 12.3438 20.875 12.4688C19.1875 15.7812 15.8125 18 12 18C8.15625 18 4.78125 15.7812 3.09375 12.4688C3.03125 12.3438 3 12.1875 3 12C3 11.8438 3.03125 11.6875 3.09375 11.5625C4.78125 8.25 8.15625 6 12 6C15.8125 6 19.1875 8.25 20.875 11.5625ZM12 16.5V16.5312C14.4688 16.5312 16.5 14.5 16.5 12.0312V12C16.5 9.53125 14.4688 7.5 12 7.5C9.5 7.5 7.5 9.53125 7.5 12C7.5 14.5 9.5 16.5 12 16.5ZM12 9V9.03125C13.6562 9.03125 15 10.3438 15 12C15 13.6562 13.6562 15 12 15C10.3438 15 9 13.6562 9 12C9 11.75 9.03125 11.4688 9.09375 11.2188C9.34375 11.4062 9.65625 11.5 10 11.5C10.8125 11.5 11.4688 10.8438 11.4688 10.0312C11.4688 9.6875 11.375 9.375 11.1875 9.125C11.4375 9.0625 11.7188 9.03125 12 9Z" fill="currentColor"/>
</svg>
