<svg width="24" height="24" viewBox="0 0 24 24" fill="currentColor" xmlns="http://www.w3.org/2000/svg">
<path d="M7 14C5.375 14 4 15.375 4 17C4 18.6562 5.375 20 7 20H15.6875C15.2812 19.5 14.7188 18.7812 14.2188 18H7C6.46875 18 6 17.5625 6 17C6 16.4688 6.46875 16 7 16H10C11.6562 16 13 14.6562 13 13C13 11.375 11.6562 10 10 10H8.59375C9.3125 9 10 7.8125 10 7C10 5.34375 8.65625 4 7 4C5.34375 4 4 5.34375 4 7C4 8.65625 7 12 7 12H10C10.5625 12 11 12.4688 11 13C11 13.5625 10.5625 14 10 14H7ZM7 6C7.5625 6 8 6.46875 8 7C8 7.5625 7.5625 8 7 8C6.46875 8 6 7.5625 6 7C6 6.46875 6.46875 6 7 6ZM17 12C15.3438 12 14 13.3438 14 15C14 16.6562 17 20 17 20C17 20 20 16.6562 20 15C20 13.3438 18.6562 12 17 12ZM17 16C16.4688 16 16 15.5625 16 15C16 14.4688 16.4688 14 17 14C17.5625 14 18 14.4688 18 15C18 15.5625 17.5625 16 17 16Z" fill="currentColor"/>
</svg>
