<svg width="24" height="24" viewBox="0 0 24 24" fill="none" xmlns="http://www.w3.org/2000/svg">
	<path fill-rule="evenodd" clip-rule="evenodd" d="M14.5416 9.78541L18.9738 7.75879C18.9738 11.3074 16.5314 14.9735 14.3644 18.4668L10.6499 23.9999L12.2749 13.897L14.5416 9.78585V9.78541Z" fill="#C5141C"/>
	<path d="M11.5 0C15.6421 0 19 3.36969 19 7.52637C19 11.683 15.6421 15.0527 11.5 15.0527C7.35788 15.0527 4.00002 11.683 4 7.52637C4 3.36969 7.35786 0 11.5 0ZM11.5 4.51562C9.84314 4.51562 8.5 5.8637 8.5 7.52637C8.50001 9.18902 9.84315 10.5371 11.5 10.5371C13.1568 10.5371 14.5 9.18901 14.5 7.52637C14.5 5.86371 13.1568 4.51565 11.5 4.51562Z" fill="#EE0000"/>
</svg>
