<svg width="24" height="24" viewBox="0 0 24 24" fill="currentColor" xmlns="http://www.w3.org/2000/svg">
<path d="M18.4062 4C19.4375 4 20.3125 5.09375 19.875 6.125L13.875 19.125C13.5937 19.75 13.0312 20 12.5 20C11.75 20 10.9687 19.4688 10.9687 18.5312V13.0312H5.46875C3.875 13.0312 3.375 10.8125 4.875 10.125L17.875 4.125C18.0625 4.0625 18.25 4 18.4062 4ZM18.9687 5.71875C19.0312 5.5625 18.9687 5.40625 18.9062 5.3125C18.7812 5.125 18.5937 5 18.4062 5C18.375 5 18.3125 5.03125 18.25 5.0625L5.3125 11.0312C4.96875 11.1875 4.96875 11.4688 5 11.625C5.03125 11.75 5.125 12.0312 5.46875 12.0312H11.9687V18.5312C11.9687 18.9062 12.3125 19.0312 12.5 19.0312C12.7187 19.0312 12.875 18.9062 12.9687 18.6875L18.9687 5.71875Z" fill="currentColor"/>
</svg>
