<svg width="24" height="24" viewBox="0 0 24 24" fill="currentColor" xmlns="http://www.w3.org/2000/svg">
<path d="M17.5 15C18.875 15 20 16.125 20 17.5C20 18.9062 18.875 20 17.5 20H7C7 20 4 16.6562 4 15C4 13.3438 5.34375 12 7 12C8.65625 12 10 13.3438 10 15C10 16.0938 8.71875 17.9062 7.8125 19H17.5C18.3125 19 19 18.3438 19 17.5C19 16.6875 18.3125 16 17.5 16H14C12.5938 16 11.5 14.9062 11.5 13.5C11.5 12.125 12.5938 11 14 11H16.1562C15.25 9.90625 14 8.09375 14 7C14 5.34375 15.3438 4 17 4C18.6562 4 20 5.34375 20 7C20 8.65625 17 12 17 12H14C13.1562 12 12.5 12.6875 12.5 13.5C12.5 14.3438 13.1562 15 14 15H17.5ZM15 7C15 7.625 15.9375 9.125 17 10.4688C18.0312 9.125 19 7.65625 19 7C19 5.90625 18.0938 5 17 5C15.875 5 15 5.90625 15 7ZM5 15C5 15.625 5.9375 17.125 7 18.4688C8.03125 17.125 9 15.6562 9 15C9 13.9062 8.09375 13 7 13C5.875 13 5 13.9062 5 15ZM7 14.5C7.65625 14.5 7.65625 15.5 7 15.5C6.3125 15.5 6.3125 14.5 7 14.5ZM17 6.5C17.6562 6.5 17.6562 7.5 17 7.5C16.3125 7.5 16.3125 6.5 17 6.5Z" fill="currentColor"/>
</svg>
