<svg width="24" height="24" viewBox="0 0 24 24" fill="currentColor" xmlns="http://www.w3.org/2000/svg">
<path d="M17.25 14.5C18.75 14.5 20 15.75 20 17.25C20 18.7812 18.75 20 17.25 20H7C7 20 4 16.6562 4 15C4 13.3438 5.34375 12 7 12C8.65625 12 10 13.3438 10 15C10 15.9375 9.03125 17.4062 8.21875 18.5H17.25C17.9375 18.5 18.5 17.9688 18.5 17.25C18.5 16.5625 17.9375 16 17.25 16H14.25C12.7188 16 11.5 14.7812 11.5 13.25C11.5 11.75 12.7188 10.5 14.25 10.5H15.75C14.9375 9.40625 14 7.9375 14 7C14 5.34375 15.3438 4 17 4C18.6562 4 20 5.34375 20 7C20 8.65625 17 12 17 12H14.25C13.5312 12 13 12.5625 13 13.25C13 13.9688 13.5312 14.5 14.25 14.5H17.25ZM15.5 7C15.5 7.4375 16.125 8.53125 17 9.65625C17.8438 8.53125 18.4688 7.4375 18.5 7C18.5 6.1875 17.8125 5.5 17 5.5C16.1562 5.5 15.5 6.1875 15.5 7ZM7 17.6562C7.84375 16.5312 8.46875 15.4375 8.5 15C8.5 14.1875 7.8125 13.5 7 13.5C6.15625 13.5 5.5 14.1875 5.5 15C5.5 15.4375 6.125 16.5312 7 17.6562ZM7 14.5C7.25 14.5 7.5 14.75 7.5 15C7.5 15.2812 7.25 15.5 7 15.5C6.71875 15.5 6.5 15.2812 6.5 15C6.5 14.75 6.71875 14.5 7 14.5ZM17.5 7C17.5 7.28125 17.25 7.5 17 7.5C16.7188 7.5 16.5 7.28125 16.5 7C16.5 6.75 16.7188 6.5 17 6.5C17.25 6.5 17.5 6.75 17.5 7Z" fill="currentColor"/>
</svg>
