<svg width="24" height="24" viewBox="0 0 24 24" fill="currentColor" xmlns="http://www.w3.org/2000/svg">
<path d="M17 14C18.625 14 20 15.375 20 17C20 18.6562 18.625 20 17 20H8.3125C8.71875 19.5 9.28125 18.7812 9.78125 18H17C17.5312 18 18 17.5625 18 17C18 16.4688 17.5312 16 17 16H14C12.3438 16 11 14.6562 11 13C11 11.375 12.3438 10 14 10H15.4062C14.6875 9 14 7.8125 14 7C14 5.34375 15.3438 4 17 4C18.6562 4 20 5.34375 20 7C20 8.65625 17 12 17 12H14C13.4375 12 13 12.4688 13 13C13 13.5625 13.4375 14 14 14H17ZM17 6C16.4375 6 16 6.46875 16 7C16 7.5625 16.4375 8 17 8C17.5312 8 18 7.5625 18 7C18 6.46875 17.5312 6 17 6ZM7 12C8.65625 12 10 13.3438 10 15C10 16.6562 7 20 7 20C7 20 4 16.6562 4 15C4 13.3438 5.34375 12 7 12ZM7 16C7.53125 16 8 15.5625 8 15C8 14.4688 7.53125 14 7 14C6.4375 14 6 14.4688 6 15C6 15.5625 6.4375 16 7 16Z" fill="currentColor"/>
</svg>
