<svg width="24" height="24" viewBox="0 0 24 24" fill="currentColor" xmlns="http://www.w3.org/2000/svg">
<path d="M15 6.5C15.0208 6.1875 15.1875 6.02083 15.5 6C15.8125 6.02083 15.9792 6.1875 16 6.5V17.5C15.9792 17.8125 15.8125 17.9792 15.5 18C15.1875 17.9792 15.0208 17.8125 15 17.5V13.25L9.40625 17.8125C9.26042 17.9375 9.08333 18 8.875 18C8.625 18 8.41667 17.9167 8.25 17.75C8.08333 17.5833 8 17.375 8 17.125V6.875C8 6.625 8.08333 6.41667 8.25 6.25C8.41667 6.08333 8.625 6 8.875 6C9.08333 6 9.26042 6.0625 9.40625 6.1875L15 10.75V6.5ZM9 7.15625V16.8438L14.9688 12L9 7.15625Z" fill="currentColor"/>
</svg>
