<svg width="24" height="24" viewBox="0 0 24 24" fill="currentColor" xmlns="http://www.w3.org/2000/svg">
<path d="M12 2C14.6116 2 17.1093 2.97157 19.0517 4.66992L19.4326 5.01953L19.4472 5.0332L21.707 7.29297C22.0975 7.68349 22.0975 8.31651 21.707 8.70703C21.3165 9.09755 20.6835 9.09755 20.293 8.70703L18.0469 6.46094L17.7353 6.1748C16.147 4.78616 14.1132 4 12 4C10.4178 4 8.87124 4.46958 7.55565 5.34863C6.24012 6.22765 5.21487 7.47676 4.60936 8.93848C4.00388 10.4002 3.84468 12.0088 4.1533 13.5605C4.46199 15.1124 5.22395 16.5384 6.34276 17.6572C7.46159 18.776 8.88757 19.538 10.4394 19.8467C11.9912 20.1552 13.5998 19.9961 15.0615 19.3906C16.5233 18.7851 17.7724 17.7599 18.6514 16.4443C19.5304 15.1288 20 13.5822 20 12C20 11.4477 20.4477 11 21 11C21.5523 11 22 11.4477 22 12C22 13.8542 21.4846 15.6694 20.5146 17.2441L20.3144 17.5557C19.2157 19.2001 17.6543 20.4824 15.8271 21.2393C13.9999 21.9962 11.9886 22.1934 10.0488 21.8076C8.10912 21.4217 6.32713 20.4696 4.92869 19.0713C3.53024 17.6728 2.57826 15.8908 2.19236 13.9512C1.80651 12.0114 2.00385 10.0001 2.76072 8.17285C3.51759 6.34566 4.7999 4.78434 6.44432 3.68555C8.08881 2.58674 10.0222 2 12 2Z" fill="currentColor"/>
<path d="M20 3C20 2.44772 20.4477 2 21 2C21.5523 2 22 2.44772 22 3V8C22 8.55228 21.5523 9 21 9H16C15.4477 9 15 8.55228 15 8C15 7.44772 15.4477 7 16 7H20V3Z" fill="currentColor"/>
</svg>
