<svg width="24" height="24" viewBox="0 0 24 24" fill="currentColor" xmlns="http://www.w3.org/2000/svg">
<path d="M19.5 12C19.5 7.85786 16.1422 4.5 12 4.5C7.85786 4.5 4.5 7.85786 4.5 12C4.5 16.1422 7.85786 19.5 12 19.5C16.1422 19.5 19.5 16.1422 19.5 12ZM20.5 12C20.5 16.6944 16.6944 20.5 12 20.5C7.30558 20.5 3.5 16.6944 3.5 12C3.5 7.30558 7.30558 3.5 12 3.5C16.6944 3.5 20.5 7.30558 20.5 12Z" fill="currentColor"/>
<path d="M11.5 7C11.5 6.72386 11.7239 6.5 12 6.5C12.2761 6.5 12.5 6.72386 12.5 7V11.9629L15.252 13.5684C15.4904 13.7075 15.5708 14.0135 15.4316 14.252C15.2925 14.4904 14.9865 14.5708 14.748 14.4316L11.748 12.6816C11.5945 12.592 11.5 12.4278 11.5 12.25V7Z" fill="currentColor"/>
</svg>
