<svg width="24" height="24" viewBox="0 0 24 24" fill="currentColor" xmlns="http://www.w3.org/2000/svg">
<path d="M19 12C19 8.134 15.866 5 12 5C8.134 5 5 8.134 5 12C5 15.866 8.134 19 12 19C15.866 19 19 15.866 19 12ZM21 12C21 16.9706 16.9706 21 12 21C7.02944 21 3 16.9706 3 12C3 7.02944 7.02944 3 12 3C16.9706 3 21 7.02944 21 12Z" fill="currentColor"/>
<path d="M10 8C10 7.44772 10.4477 7 11 7C11.5523 7 12 7.44772 12 8V11.8066L15.3516 13.0635C15.8685 13.2575 16.1304 13.8345 15.9365 14.3516C15.7425 14.8685 15.1655 15.1304 14.6484 14.9365L10.6484 13.4365C10.2583 13.2901 10 12.9167 10 12.5V8Z" fill="currentColor"/>
</svg>
