<svg width="24" height="24" viewBox="0 0 24 24" fill="currentColor" xmlns="http://www.w3.org/2000/svg">
<path fill-rule="evenodd" clip-rule="evenodd" d="M12 4C16.4183 4 20 7.58172 20 12C20 16.4183 16.4183 20 12 20C7.58172 20 4 16.4183 4 12C4 7.58172 7.58172 4 12 4ZM12 8.5C11.7239 8.5 11.5 8.72386 11.5 9V12C11.5 12.1894 11.607 12.3626 11.7764 12.4473L13.7764 13.4473C14.0234 13.5708 14.3238 13.4706 14.4473 13.2236C14.5708 12.9766 14.4706 12.6762 14.2236 12.5527L12.5 11.6904V9C12.5 8.72386 12.2761 8.5 12 8.5Z" fill="currentColor"/>
</svg>
