<svg width="24" height="24" viewBox="0 0 24 24" fill="currentColor" xmlns="http://www.w3.org/2000/svg">
<path d="M19.4062 5.78125C20.1875 6.5625 20.1875 7.8125 19.4062 8.59375L8.375 19.625L4.8125 20C4.34375 20.0625 3.9375 19.6562 4 19.1875L4.375 15.625L15.4062 4.59375C16.1875 3.8125 17.4375 3.8125 18.2187 4.59375L19.4062 5.78125ZM16.4375 10.1562L13.8437 7.5625L6.84375 14.5625H7.9375V16.0625H9.4375V17.1562L16.4375 10.1562ZM7.9375 18.6562L8.5625 18.0312V16.9375H7.0625V15.4375H5.96875L5.34375 16.0625L5.125 17.9062L6.09375 18.875L7.9375 18.6562ZM18.6875 7.90625C19.0937 7.5 19.0937 6.875 18.6875 6.46875L17.5312 5.3125C17.125 4.90625 16.5 4.90625 16.0937 5.3125L14.5312 6.875L17.125 9.46875L18.6875 7.90625Z" fill="currentColor"/>
</svg>
