<svg width="24" height="24" viewBox="0 0 24 24" fill="currentColor" xmlns="http://www.w3.org/2000/svg">
<path d="M19.5313 8.46875L18.0938 9.90625C17.9688 10.0312 17.7188 10.0312 17.5625 9.90625L14.0938 6.4375C13.9688 6.28125 13.9688 6.03125 14.0938 5.90625L15.5313 4.46875C16.125 3.875 17.0938 3.875 17.6563 4.46875L19.5313 6.34375C20.125 6.90625 20.125 7.875 19.5313 8.46875ZM12.875 7.125C13 7 13.25 7 13.4063 7.125L16.875 10.5938C17.0313 10.75 17.0313 11 16.875 11.125L8.65625 19.3438L4.875 20C4.34375 20.0938 3.90625 19.6562 4 19.125L4.65625 15.3438L12.875 7.125ZM6.75 17.25V15.75H5.59375L5.25 17.7812L6.21875 18.75L8.25 18.4062V17.25H6.75Z" fill="currentColor"/>
</svg>
