<svg width="24" height="24" viewBox="0 0 24 24" fill="currentColor" xmlns="http://www.w3.org/2000/svg">
<path d="M19.8438 11.4688C21.1875 12.1875 22 13.5312 22 15C22 17.2188 20.1875 19 18 19H6.5C4 19 2 17 2 14.5C2 12.5938 3.21875 10.9062 5 10.2812C5.125 7.34375 7.53125 5 10.5 5C12.3438 5 14 5.9375 15 7.34375C15.4688 7.125 15.9688 7 16.5 7C18.4062 7 20 8.59375 20 10.5C20 10.8438 19.9375 11.1562 19.8438 11.4688ZM18 18C19.6562 18 21 16.6562 21 15C21 13.5312 19.9062 12.2812 18.4688 12.0625C18.7812 11.625 19 11.0938 19 10.5C19 9.125 17.875 8 16.5 8C15.75 8 15.125 8.3125 14.6562 8.8125C13.9688 7.15625 12.375 6 10.5 6C8 6 6 8.03125 6 10.5C6 10.6875 6 10.875 6.03125 11.0312C4.3125 11.2812 3 12.75 3 14.5C3 16.4375 4.5625 18 6.5 18H18ZM14.6562 11.9688L14.8125 12.1562C14.9688 12.2812 14.9688 12.5312 14.8125 12.6875L11.75 15.75C11.5938 15.9062 11.375 15.9062 11.2188 15.75L8.15625 12.6875C8 12.5312 8 12.2812 8.15625 12.1562L8.3125 11.9688C8.46875 11.8125 8.71875 11.8125 8.84375 11.9688L11 14.0938V9.375C11 9.1875 11.1562 9 11.375 9H11.625C11.8125 9 12 9.1875 12 9.375V14.0938L14.125 11.9688C14.25 11.8125 14.5 11.8125 14.6562 11.9688Z" fill="currentColor"/>
</svg>
