<svg width="24" height="24" viewBox="0 0 24 24" fill="currentColor" xmlns="http://www.w3.org/2000/svg">
<path d="M18.9688 10.2812C20.75 10.9062 22 12.5938 22 14.5C22 17 19.9688 19 17.5 19H7C4.21875 19 2 16.7812 2 14C2 11.9688 3.21875 10.1562 5.09375 9.375C5.625 6.875 7.84375 5 10.5 5C12.25 5 13.7812 5.84375 14.7812 7.09375C15 7.03125 15.25 7 15.5 7C17.3438 7 18.8438 8.46875 18.9688 10.2812ZM17.5 17.5C19.1562 17.5 20.5 16.1562 20.5 14.5C20.5 12.8438 19.1562 11.5 17.5 11.5C17.4062 11.5 17.3125 11.5312 17.2188 11.5312C17.375 11.2188 17.5 10.875 17.5 10.5C17.5 9.40625 16.5938 8.5 15.5 8.5C15 8.5 14.5312 8.6875 14.1875 9C13.5938 7.53125 12.1562 6.5 10.5 6.5C8.28125 6.5 6.5 8.3125 6.5 10.5V10.5625C4.78125 10.7812 3.5 12.25 3.5 14C3.5 15.9375 5.0625 17.5 7 17.5H17.5ZM13.9688 12L14.5 12.5312C14.6562 12.6875 14.6562 12.9062 14.5 13.0625L11.25 16.3125C11.0938 16.4688 10.875 16.4688 10.7188 16.3125L7.46875 13.0625C7.3125 12.9062 7.3125 12.6875 7.46875 12.5312L8 12C8.15625 11.8438 8.375 11.8438 8.53125 12L10.25 13.75V9.375C10.25 9.1875 10.4062 9 10.625 9H11.375C11.5625 9 11.75 9.1875 11.75 9.375V13.75L13.4375 12C13.5938 11.8438 13.8125 11.8438 13.9688 12Z" fill="currentColor"/>
</svg>
