<svg width="24" height="24" viewBox="0 0 24 24" fill="currentColor" xmlns="http://www.w3.org/2000/svg">
<path d="M18.7812 11.0938C20.625 11.4688 22 13.0938 22 15C22 17.2188 20.1875 19 18 19H6.5C4 19 2 17 2 14.5C2 12.5625 3.25 10.875 5 10.2812C5 10.1875 5 10.0938 5 10C5 7.25 7.21875 5 10 5C11.8438 5 13.4688 6.03125 14.3125 7.53125C14.7812 7.1875 15.375 7 16 7C17.6562 7 19 8.34375 19 10C19 10.4062 18.9062 10.75 18.7812 11.0938ZM14.4062 14C14.7188 13.7188 14.7188 13.2188 14.4062 12.9375L14.0938 12.5938C13.7812 12.3125 13.2812 12.3125 13 12.625L12 13.6875V9.75C12 9.34375 11.6562 9 11.25 9H10.75C10.3125 9 10 9.34375 10 9.75V13.6875L8.96875 12.625C8.6875 12.3125 8.1875 12.3125 7.90625 12.5938L7.5625 12.9375C7.28125 13.2188 7.28125 13.7188 7.5625 14L10.4688 16.9062C10.75 17.1875 11.2188 17.1875 11.5312 16.9062L14.4062 14Z" fill="currentColor"/>
</svg>
