<svg width="24" height="24" viewBox="0 0 24 24" fill="none" xmlns="http://www.w3.org/2000/svg">
<path d="M18.7812 12.5624C18.9375 12.4062 19 12.2187 19 11.9999C19 11.8124 18.9375 11.6249 18.7812 11.4687L13.2812 6.21866C12.9688 5.93741 12.5 5.93741 12.2188 6.24991C11.9375 6.53116 11.9375 7.03116 12.25 7.31241L16.4062 11.2499H5.75C5.34375 11.2499 5 11.5937 5 11.9999C5 12.4374 5.34375 12.7499 5.75 12.7499H16.4062L12.25 16.7187C11.9375 16.9999 11.9375 17.4687 12.2188 17.7812C12.5 18.0937 12.9688 18.0937 13.2812 17.8124L18.7812 12.5624Z" fill="#222222"/>
</svg>
