<svg width="24" height="24" viewBox="0 0 24 24" fill="currentColor" xmlns="http://www.w3.org/2000/svg">
<path d="M21.5312 13.1875L15.1562 19.5625C14.5938 20.1562 13.625 20.1562 13.0312 19.5625L13 19.5312L13.6875 18.8125L13.75 18.875C13.9375 19.0625 14.25 19.0625 14.4688 18.875L20.8438 12.5C21.0312 12.2812 21.0312 11.9688 20.8438 11.7812L14.2188 5.15625C14.125 5.0625 14 5 13.875 5H13.25L12.25 4H13.875C14.2812 4 14.6562 4.1875 14.9375 4.46875L21.5312 11.0625C22.125 11.6562 22.125 12.625 21.5312 13.1875ZM9.875 5H3.5C3.21875 5 3 5.25 3 5.5V11.9062C3 12.0312 3.03125 12.1562 3.125 12.25L9.75 18.875C9.9375 19.0625 10.25 19.0625 10.4688 18.875L16.8438 12.5C17.0312 12.2812 17.0312 11.9688 16.8438 11.7812L10.2188 5.15625C10.125 5.0625 10 5 9.875 5ZM9.875 4C10.2812 4 10.6562 4.1875 10.9375 4.46875L17.5312 11.0625C18.125 11.6562 18.125 12.625 17.5312 13.1875L11.1562 19.5625C10.5938 20.1562 9.625 20.1562 9.03125 19.5625L2.4375 12.9688C2.15625 12.6875 2 12.3125 2 11.9062V5.5C2 4.6875 2.65625 4 3.5 4H9.875ZM6.5 7.875C6.125 7.875 5.875 8.15625 5.875 8.5C5.875 8.875 6.125 9.125 6.5 9.125C6.84375 9.125 7.125 8.875 7.125 8.5C7.125 8.15625 6.84375 7.875 6.5 7.875ZM6.5 7C7.3125 7 8 7.6875 8 8.5C8 9.34375 7.3125 10 6.5 10C5.65625 10 5 9.34375 5 8.5C5 7.6875 5.65625 7 6.5 7Z" fill="currentColor"/>
</svg>
