<svg width="24" height="24" viewBox="0 0 24 24" fill="currentColor" xmlns="http://www.w3.org/2000/svg">
<path d="M21.5312 13.1875L15.1562 19.5625C14.5938 20.1562 13.625 20.1562 13.0312 19.5625L20.5 12.125L12.3438 4H13.875C14.2812 4 14.6562 4.1875 14.9375 4.46875L21.5312 11.0625C22.125 11.6562 22.125 12.625 21.5312 13.1875ZM17.5312 13.1875L11.1562 19.5625C10.875 19.875 10.5 20 10.0938 20C9.71875 20 9.34375 19.875 9.03125 19.5625L2.4375 12.9688C2.15625 12.6875 2 12.3125 2 11.9062V5.5C2 4.6875 2.65625 4 3.5 4H9.875C10.2812 4 10.6562 4.1875 10.9375 4.46875L17.5312 11.0625C18.125 11.6562 18.125 12.625 17.5312 13.1875ZM16.5 12.125L9.875 5.5H3.5V11.9062L10.0938 18.5L16.5 12.125ZM6.5 7C7.3125 7 8 7.6875 8 8.5C8 9.34375 7.3125 10 6.5 10C5.65625 10 5 9.34375 5 8.5C5 7.6875 5.65625 7 6.5 7Z" fill="currentColor"/>
</svg>
