<svg width="24" height="24" viewBox="0 0 24 24" fill="currentColor" xmlns="http://www.w3.org/2000/svg">
<path d="M17.5312 11.0625C18.125 11.6562 18.125 12.625 17.5312 13.1875L11.1562 19.5625C10.5938 20.1562 9.625 20.1562 9.03125 19.5625L2.4375 12.9688C2.15625 12.6875 2 12.3125 2 11.9062V5.5C2 4.6875 2.65625 4 3.5 4H9.875C10.2812 4 10.6562 4.1875 10.9375 4.46875L17.5312 11.0625ZM5.5 9C6.3125 9 7 8.34375 7 7.5C7 6.6875 6.3125 6 5.5 6C4.65625 6 4 6.6875 4 7.5C4 8.34375 4.65625 9 5.5 9ZM21.5312 13.1875L15.1562 19.5625C14.5938 20.1562 13.625 20.1562 13.0312 19.5625L18.4688 14.125C19 13.5938 19.3125 12.875 19.3125 12.125C19.3125 11.375 19 10.6875 18.4688 10.1562L12.3438 4H13.875C14.2812 4 14.6562 4.1875 14.9375 4.46875L21.5312 11.0625C22.125 11.6562 22.125 12.625 21.5312 13.1875Z" fill="currentColor"/>
</svg>
