<svg width="24" height="24" viewBox="0 0 24 24" fill="currentColor" xmlns="http://www.w3.org/2000/svg">
<path d="M7.45 6V18H9.4V6H7.45ZM5.5 6C5.52708 5.44444 5.71667 4.97222 6.06875 4.58333C6.44792 4.22222 6.90833 4.02778 7.45 4H9.4C9.94167 4.02778 10.4021 4.22222 10.7812 4.58333C11.1333 4.97222 11.3229 5.44444 11.35 6V18C11.3229 18.5556 11.1333 19.0278 10.7812 19.4167C10.4021 19.7778 9.94167 19.9722 9.4 20H7.45C6.90833 19.9722 6.44792 19.7778 6.06875 19.4167C5.71667 19.0278 5.52708 18.5556 5.5 18V6ZM14.6 6V18H16.55V6H14.6ZM12.65 6C12.6771 5.44444 12.8667 4.97222 13.2187 4.58333C13.5979 4.22222 14.0583 4.02778 14.6 4H16.55C17.0917 4.02778 17.5521 4.22222 17.9312 4.58333C18.2833 4.97222 18.4729 5.44444 18.5 6V18C18.4729 18.5556 18.2833 19.0278 17.9312 19.4167C17.5521 19.7778 17.0917 19.9722 16.55 20H14.6C14.0583 19.9722 13.5979 19.7778 13.2187 19.4167C12.8667 19.0278 12.6771 18.5556 12.65 18V6Z" fill="currentColor"/>
</svg>
