<svg width="24" height="24" viewBox="0 0 24 24" fill="currentColor" xmlns="http://www.w3.org/2000/svg">
<path d="M7.45 4H8.75C9.29167 4.02778 9.75208 4.22222 10.1312 4.58333C10.4833 4.97222 10.6729 5.44444 10.7 6V18C10.6729 18.5556 10.4833 19.0278 10.1312 19.4167C9.75208 19.7778 9.29167 19.9722 8.75 20H7.45C6.90833 19.9722 6.44792 19.7778 6.06875 19.4167C5.71667 19.0278 5.52708 18.5556 5.5 18V6C5.52708 5.44444 5.71667 4.97222 6.06875 4.58333C6.44792 4.22222 6.90833 4.02778 7.45 4ZM15.25 4H16.55C17.0917 4.02778 17.5521 4.22222 17.9312 4.58333C18.2833 4.97222 18.4729 5.44444 18.5 6V18C18.4729 18.5556 18.2833 19.0278 17.9312 19.4167C17.5521 19.7778 17.0917 19.9722 16.55 20H15.25C14.7083 19.9722 14.2479 19.7778 13.8687 19.4167C13.5167 19.0278 13.3271 18.5556 13.3 18V6C13.3271 5.44444 13.5167 4.97222 13.8687 4.58333C14.2479 4.22222 14.7083 4.02778 15.25 4Z" fill="currentColor"/>
</svg>
