<svg width="24" height="24" viewBox="0 0 24 24" fill="currentColor" xmlns="http://www.w3.org/2000/svg">
<path d="M12 5.25C8.25 5.25 5.25 8.28125 5.25 12C5.25 15.75 8.25 18.75 12 18.75C15.7188 18.75 18.75 15.75 18.75 12C18.75 8.28125 15.6875 5.25 12 5.25ZM12 4.25C16.25 4.25 19.75 7.75 19.75 12C19.75 16.2812 16.25 19.75 12 19.75C7.71875 19.75 4.25 16.2812 4.25 12C4.25 7.75 7.71875 4.25 12 4.25ZM10.875 15H11.25V11.25H10.875C10.6562 11.25 10.5 11.0938 10.5 10.875V10.625C10.5 10.4375 10.6562 10.25 10.875 10.25H12.375C12.5625 10.25 12.75 10.4375 12.75 10.625V15H13.125C13.3125 15 13.5 15.1875 13.5 15.375V15.625C13.5 15.8438 13.3125 16 13.125 16H10.875C10.6562 16 10.5 15.8438 10.5 15.625V15.375C10.5 15.1875 10.6562 15 10.875 15ZM12 7.5C12.5312 7.5 13 7.96875 13 8.5C13 9.0625 12.5312 9.5 12 9.5C11.4375 9.5 11 9.0625 11 8.5C11 7.96875 11.4375 7.5 12 7.5Z" fill="currentColor"/>
</svg>
