<svg width="24" height="24" viewBox="0 0 24 24" fill="currentColor" xmlns="http://www.w3.org/2000/svg">
<path d="M12 4.25C16.25 4.25 19.75 7.75 19.75 12C19.75 16.2812 16.25 19.75 12 19.75C7.71875 19.75 4.25 16.2812 4.25 12C4.25 7.75 7.71875 4.25 12 4.25ZM12 18.25C15.4375 18.25 18.25 15.4688 18.25 12C18.25 8.5625 15.4375 5.75 12 5.75C8.53125 5.75 5.75 8.5625 5.75 12C5.75 15.4688 8.53125 18.25 12 18.25ZM12 7.6875C12.7188 7.6875 13.3125 8.28125 13.3125 9C13.3125 9.75 12.7188 10.3125 12 10.3125C11.25 10.3125 10.6875 9.75 10.6875 9C10.6875 8.28125 11.25 7.6875 12 7.6875ZM13.75 15.625C13.75 15.8438 13.5625 16 13.375 16H10.625C10.4062 16 10.25 15.8438 10.25 15.625V14.875C10.25 14.6875 10.4062 14.5 10.625 14.5H11V12.5H10.625C10.4062 12.5 10.25 12.3438 10.25 12.125V11.375C10.25 11.1875 10.4062 11 10.625 11H12.625C12.8125 11 13 11.1875 13 11.375V14.5H13.375C13.5625 14.5 13.75 14.6875 13.75 14.875V15.625Z" fill="currentColor"/>
</svg>
