<svg width="24" height="24" viewBox="0 0 24 24" fill="currentColor" xmlns="http://www.w3.org/2000/svg">
<path d="M19 10.5713C18.9999 10.2558 18.7442 10.0001 18.4287 10H10.5713C10.2558 10.0001 10.0001 10.2558 10 10.5713V18.4287C10.0001 18.7442 10.2558 18.9999 10.5713 19H18.4287C18.7441 18.9999 18.9999 18.7441 19 18.4287V10.5713ZM21 18.4287C20.9999 19.8487 19.8487 20.9999 18.4287 21H10.5713C9.15122 20.9999 8.00006 19.8487 8 18.4287V10.5713C8.00006 9.15124 9.15124 8.00006 10.5713 8H18.4287C19.8487 8.00006 20.9999 9.15122 21 10.5713V18.4287Z" fill="currentColor"/>
<path d="M14 5.57129C13.9999 5.25935 13.7406 5.00006 13.4287 5H5.57129C5.25939 5.00008 5.00008 5.25939 5 5.57129V13.4287C5.00006 13.7406 5.25935 13.9999 5.57129 14C6.12357 14 6.57129 14.4477 6.57129 15C6.57129 15.5523 6.12357 16 5.57129 16C4.15484 15.9999 3.00006 14.8452 3 13.4287V5.57129C3.00008 4.15483 4.15483 3.00008 5.57129 3H13.4287C14.8452 3.00006 15.9999 4.15484 16 5.57129C16 6.12357 15.5523 6.57129 15 6.57129C14.4477 6.57129 14 6.12357 14 5.57129Z" fill="currentColor"/>
</svg>
