<svg width="24" height="24" viewBox="0 0 24 24" fill="currentColor" xmlns="http://www.w3.org/2000/svg">
<path d="M13.0312 12L16.9062 15.875C17 15.9688 17 16.125 16.9062 16.25L16.2188 16.9375C16.0938 17.0312 15.9375 17.0312 15.8438 16.9375L15.1875 16.2812L12 13.0625L8.125 16.9375C8.03125 17.0312 7.875 17.0312 7.75 16.9375L7.0625 16.25C6.96875 16.125 6.96875 15.9688 7.0625 15.875L10.9375 12L7.0625 8.15625C6.96875 8.0625 6.96875 7.90625 7.0625 7.78125L7.75 7.09375C7.875 7 8.03125 7 8.125 7.09375L12 10.9688L15.8438 7.09375C15.9375 7 16.0938 7 16.2188 7.09375L16.9062 7.78125C17 7.90625 17 8.0625 16.9062 8.15625L16.25 8.8125L13.0312 12Z" fill="currentColor"/>
</svg>
