<svg width="24" height="24" viewBox="0 0 24 24" fill="currentColor" xmlns="http://www.w3.org/2000/svg">
<path d="M14.0625 12L17.1875 15.1562C17.5938 15.5312 17.5938 16.1562 17.1875 16.5312L16.5 17.2188C16.125 17.625 15.5 17.625 15.125 17.2188L12 14.0938L8.84375 17.2188C8.46875 17.625 7.84375 17.625 7.46875 17.2188L6.78125 16.5312C6.375 16.1562 6.375 15.5312 6.78125 15.1562L9.90625 12L6.78125 8.875C6.375 8.5 6.375 7.875 6.78125 7.5L7.46875 6.8125C7.84375 6.40625 8.46875 6.40625 8.84375 6.8125L12 9.9375L15.125 6.8125C15.5 6.40625 16.125 6.40625 16.5 6.8125L17.1875 7.5C17.5938 7.875 17.5938 8.5 17.1875 8.875L14.0625 12Z" fill="currentColor"/>
</svg>
