<svg width="20" height="21" viewBox="0 0 20 21" fill="none" xmlns="http://www.w3.org/2000/svg">
    <path d="M6.45908 11V2.5C6.45908 2.10218 6.61711 1.72064 6.89842 1.43934C7.17972 1.15804 7.56125 1 7.95908 1C8.3569 1 8.73843 1.15804 9.01974 1.43934C9.30104 1.72064 9.45908 2.10218 9.45908 2.5V10M9.45908 9.5V7.5C9.45908 7.10218 9.61711 6.72064 9.89842 6.43934C10.1797 6.15804 10.5613 6 10.9591 6C11.3569 6 11.7384 6.15804 12.0197 6.43934C12.301 6.72064 12.4591 7.10218 12.4591 7.5V10M12.4591 8.5C12.4591 8.10218 12.6171 7.72064 12.8984 7.43934C13.1797 7.15804 13.5613 7 13.9591 7C14.3569 7 14.7384 7.15804 15.0197 7.43934C15.301 7.72064 15.4591 8.10218 15.4591 8.5V10" stroke="#0088FF" stroke-width="2" stroke-linecap="round" stroke-linejoin="round"/>
    <path d="M15.4591 9.50001C15.4591 9.10218 15.6171 8.72065 15.8984 8.43935C16.1797 8.15804 16.5612 8.00001 16.9591 8.00001C17.3569 8.00001 17.7384 8.15804 18.0197 8.43935C18.301 8.72065 18.4591 9.10218 18.4591 9.50001V14C18.4591 15.5913 17.8269 17.1174 16.7017 18.2426C15.5765 19.3679 14.0504 20 12.4591 20H10.4591H10.6671C9.6734 20.0002 8.69525 19.7536 7.82044 19.2823C6.94564 18.811 6.20158 18.1299 5.65506 17.3L5.45906 17C5.14706 16.5213 4.05173 14.612 2.17306 11.272C1.98151 10.9315 1.93034 10.5298 2.03044 10.1522C2.13054 9.77455 2.37401 9.45088 2.70906 9.25001C3.06609 9.03639 3.48417 8.94794 3.89712 8.99865C4.31008 9.04936 4.69433 9.23635 4.98906 9.53001L6.45906 11M1.00006 3.59401C1.76753 3.03306 2.59211 2.55474 3.46006 2.16701M12.4591 1.45801C13.7615 1.80688 15.0038 2.35034 16.1441 3.07001" stroke="#0088FF" stroke-width="2" stroke-linecap="round" stroke-linejoin="round"/>
</svg>
