<svg width="24" height="24" viewBox="0 0 24 24" fill="currentColor" xmlns="http://www.w3.org/2000/svg">
<path d="M19.875 19.0625C20.0312 19.2188 20.0312 19.4375 19.875 19.5938L19.5625 19.9062C19.4062 20.0625 19.1875 20.0625 19.0312 19.9062L15 15.875C14.9375 15.8125 14.9062 15.7188 14.9062 15.5938V15.2812C13.75 16.3438 12.1875 17 10.5 17C6.90625 17 4 14.0938 4 10.5C4 6.9375 6.90625 4 10.5 4C14.0625 4 17 6.9375 17 10.5C17 12.2188 16.3438 13.75 15.25 14.9375H15.5938C15.6875 14.9375 15.7812 14.9688 15.8438 15.0312L19.875 19.0625ZM10.5 16C13.5312 16 16 13.5625 16 10.5C16 7.46875 13.5312 5 10.5 5C7.4375 5 5 7.46875 5 10.5C5 13.5625 7.4375 16 10.5 16Z" fill="currentColor"/>
</svg>
