<svg width="24" height="24" viewBox="0 0 24 24" fill="currentColor" xmlns="http://www.w3.org/2000/svg">
<path d="M19.7812 17.8438C20.0625 18.1562 20.0625 18.625 19.75 18.9062L18.875 19.7812C18.5938 20.0938 18.125 20.0938 17.8125 19.7812L14.7188 16.6875C14.5625 16.5312 14.5 16.3438 14.5 16.1562V15.625C13.375 16.5 12 17 10.5 17C6.90625 17 4 14.0938 4 10.5C4 6.9375 6.90625 4 10.5 4C14.0625 4 17 6.9375 17 10.5C17 12.0312 16.4688 13.4062 15.625 14.5H16.125C16.3125 14.5 16.5 14.5938 16.6562 14.7188L19.7812 17.8438ZM10.5 14.5C12.6875 14.5 14.5 12.7188 14.5 10.5C14.5 8.3125 12.6875 6.5 10.5 6.5C8.28125 6.5 6.5 8.3125 6.5 10.5C6.5 12.7188 8.28125 14.5 10.5 14.5Z" fill="currentColor"/>
</svg>
