<svg width="24" height="24" viewBox="0 0 24 24" fill="currentColor" xmlns="http://www.w3.org/2000/svg">
<path d="M18 10C20.1875 10.0312 22.0312 11.875 21.9688 14.0625C21.9375 16.2812 20.1562 18.0312 17.9375 18C15.75 18 13.9688 16.1875 13.9688 14C14 12.7812 14.5625 11.6562 15.4375 10.9375L15.0313 10.3125L11.9063 14.8125C11.8125 14.9375 11.6563 15 11.4688 15H9.84375C9.40625 16.75 7.84375 18 5.96875 18C3.78125 18 2 16.2188 2 14C1.96875 11.8125 3.75 10.0312 5.96875 10.0312C6.59375 10 7.21875 10.1562 7.75 10.4062L8.71875 9H6.96875C6.71875 9 6.46875 8.78125 6.46875 8.5C6.46875 8.25 6.71875 8 6.96875 8H9.59375C9.8125 8 9.96875 8.1875 9.96875 8.375V9H14.2188L12.9688 7H11.0938C10.9063 7 10.7188 6.84375 10.7188 6.625V6.375C10.7188 6.1875 10.9063 6 11.0938 6H13.2188C13.4063 6 13.5625 6.09375 13.6563 6.25L16.2813 10.4062C16.8125 10.1562 17.375 10 18 10ZM5.96875 17C7.28125 17 8.40625 16.1875 8.8125 15H5.46875C5.09375 15 4.84375 14.5625 5.0625 14.2188L7.15625 11.25C6.78125 11.0938 6.40625 11 5.96875 11C4.34375 11 2.96875 12.375 2.96875 14C2.96875 15.6562 4.34375 17 5.96875 17ZM8.96875 14C8.96875 13.125 8.59375 12.3438 8 11.7812L6.4375 14H8.96875ZM11.2188 14L14.0313 10H9.25L8.5625 10.9688C9.4375 11.7188 9.96875 12.7812 9.96875 14H11.2188ZM17.875 17C19.5625 17.0938 20.9688 15.7188 20.9688 14C20.9688 12.375 19.625 11 17.9688 11C17.5625 11 17.1875 11.0938 16.8125 11.25L18.4688 13.8438C18.5938 14.0312 18.5312 14.25 18.3438 14.375L18.1562 14.5C17.9688 14.625 17.75 14.5625 17.625 14.375L15.9688 11.7812C15.3438 12.3438 14.9688 13.1875 15 14.125C15.0313 15.6875 16.3125 16.9375 17.875 17Z" fill="currentColor"/>
</svg>
