<svg width="24" height="24" viewBox="0 0 24 24" fill="currentColor" xmlns="http://www.w3.org/2000/svg">
<path d="M18.0625 10.0312C20.2188 10.0625 21.9688 11.8125 21.9688 13.9688C22 16.2188 20.1875 18.0312 17.9375 18C15.7813 18 14 16.1875 14 14.0312C13.9688 12.7812 14.5313 11.6875 15.4063 10.9375L14.8125 9.96875L11.375 14.875C11.25 15.0312 11.0625 15.125 10.875 15.125H9.8125C9.34375 16.8125 7.8125 18 6 18C3.78125 18 2 16.25 2 14.0312C1.96875 11.8438 3.78125 10 6 10C6.59375 10.0312 7.1875 10.1562 7.71875 10.4062L8.53125 9.25H6.625C6.25 9.25 6 9 6 8.625C6 8.28125 6.25 8 6.625 8H9.625C9.8125 8 10 8.1875 10 8.375V8.875H14.1563L13.125 7.25H11.375C11.1563 7.25 11 7.09375 11 6.875V6.375C11 6.1875 11.1563 6 11.375 6H13.5C13.7188 6 13.9063 6.125 14 6.3125L16.5 10.3125C16.9688 10.125 17.5 10 18.0625 10.0312ZM6 16.75C7.09375 16.75 8.0625 16.0938 8.5 15.125H5.625C5.09375 15.125 4.8125 14.5625 5.09375 14.1562L7 11.4688C6.6875 11.3438 6.34375 11.25 6 11.25C4.46875 11.25 3.25 12.5 3.25 14C3.25 15.5312 4.46875 16.75 6 16.75ZM6.8125 13.875H8.71875C8.6875 13.2188 8.4375 12.625 8.03125 12.1562L6.8125 13.875ZM10.5313 13.875L13.1563 10.125H9.4375L8.75 11.125C9.46875 11.8125 9.9375 12.8125 9.96875 13.875H10.5313ZM17.8438 16.75C19.4688 16.8438 20.8125 15.5 20.7188 13.875C20.6563 12.4688 19.5 11.3125 18.0625 11.2812C17.75 11.25 17.4375 11.3125 17.1563 11.375L18.6563 13.7812C18.75 13.9375 18.6875 14.1875 18.5313 14.2812L18.0938 14.5625C17.9375 14.6562 17.6875 14.5938 17.5938 14.4375L16.0938 12.0312C15.5313 12.5312 15.2188 13.2812 15.25 14.125C15.2813 15.5312 16.4375 16.6875 17.8438 16.75Z" fill="currentColor"/>
</svg>
