<svg width="24" height="24" viewBox="0 0 24 24" fill="currentColor" xmlns="http://www.w3.org/2000/svg">
<path d="M18 10.0312C20.2188 10.0312 22.0312 11.875 21.9688 14.0625C21.9375 16.2812 20.1562 18.0312 17.9375 18C15.7812 18 14 16.1875 14 14.0312C13.9687 12.8438 14.4687 11.8125 15.2812 11.0625L14.8125 10.3125L12.125 14.6562C12 14.875 11.75 15 11.5 15H9.84375C9.40625 16.75 7.84375 18 6 18C3.78125 18 1.96875 16.2188 2 14C2 11.8125 3.8125 10 6 10C6.46875 10.0312 6.90625 10.0938 7.34375 10.25L8.25 8.75H6.75C6.3125 8.75 6 8.4375 6 8.03125C5.96875 7.59375 6.34375 7.25 6.75 7.25H9.5C9.75 7.25 10 7.5 10 7.75V8.25H13.5312L13.0625 7.5H11.5C11.2187 7.5 11 7.28125 11 7V6.5C11 6.25 11.2187 6 11.5 6H13.5C13.75 6 14 6.15625 14.125 6.375L16.5625 10.2812C17 10.0938 17.5 10 18 10.0312ZM7.8125 12.3125L7.09375 13.5H8.4375C8.34375 13.0625 8.125 12.6562 7.8125 12.3125ZM6 16.5C7 16.5 7.875 15.9062 8.28125 15H5.75C5.15625 15 4.78125 14.375 5.09375 13.875L6.53125 11.5625C6.34375 11.5312 6.15625 11.5 6 11.5C4.59375 11.5 3.5 12.625 3.5 14C3.5 15.4062 4.59375 16.5 6 16.5ZM11.0625 13.5L13.375 9.75H9.40625L8.625 11C9.34375 11.6562 9.84375 12.5312 9.96875 13.5H11.0625ZM17.8437 16.5C19.2812 16.5938 20.5 15.4375 20.5 14.0312C20.5 12.625 19.375 11.5312 18 11.5312C17.9688 11.5312 18 11.5312 17.9687 11.5312C17.7812 11.5312 17.5625 11.5312 17.375 11.5938L18.75 13.8438C18.9062 14.0625 18.8125 14.375 18.5938 14.5312L18.1562 14.7812C17.9375 14.9375 17.625 14.8438 17.4687 14.625L16.0937 12.375C15.6875 12.8438 15.4687 13.4688 15.5 14.125C15.5312 15.4062 16.5625 16.4375 17.8437 16.5Z" fill="currentColor"/>
</svg>
