<svg width="24" height="24" viewBox="0 0 24 24" fill="currentColor" xmlns="http://www.w3.org/2000/svg">
<path d="M20.5 9C20.75 9 21 9.21875 21 9.5V17.3438C21 17.75 20.75 18.125 20.3438 18.25L15.625 19.9062C15.2188 20.0625 14.7812 20.0312 14.375 19.9062L9 18L3.6875 19.9688C3.625 20 3.5625 20 3.5 20C3.21875 20 3 19.8125 3 19.5V11.6875C3 11.2812 3.25 10.9062 3.625 10.75L8.3125 9.125C8.125 8.65625 8 8.21875 8 7.84375C8 5.75 9.78125 4 12 4C14.1875 4 16 5.71875 16 7.84375C16 8.6875 15.4062 9.8125 14.6562 10.9062L15 11L20.3125 9.0625C20.375 9.03125 20.4375 9 20.5 9ZM8.5 17.125V10.125L3.9375 11.7188L3.96875 18.7812L8.5 17.125ZM12 5C10.3438 5 9 6.28125 9 7.84375C9 8.6875 10.1875 10.625 12 12.75C13.7812 10.625 15 8.6875 15 7.84375C15 6.28125 13.625 5 12 5ZM9.5 17.125L14.5 18.9062V11.9062L14.0625 11.75C13.4375 12.625 12.7812 13.375 12.375 13.8438C12.2812 13.9688 12.125 14 12 14C11.8438 14 11.6875 13.9688 11.5938 13.8438C11.125 13.2812 10.25 12.2812 9.5 11.1562V17.125ZM15.5 18.9062L20.0312 17.3125L20 10.2188L15.5 11.9062V18.9062Z" fill="currentColor"/>
</svg>
