<svg width="24" height="24" viewBox="0 0 24 24" fill="currentColor" xmlns="http://www.w3.org/2000/svg">
<path d="M13 12C13 12.5625 12.5312 13 12 13C11.4375 13 11 12.5625 11 12C11 11.4688 11.4375 11 12 11C12.5312 11 13 11.4688 13 12ZM15.75 11C16.2812 11 16.75 11.4688 16.75 12C16.75 12.5625 16.2812 13 15.75 13C15.1875 13 14.75 12.5625 14.75 12C14.75 11.4688 15.1875 11 15.75 11ZM8.25 11C8.78125 11 9.25 11.4688 9.25 12C9.25 12.5625 8.78125 13 8.25 13C7.6875 13 7.25 12.5625 7.25 12C7.25 11.4688 7.6875 11 8.25 11Z" fill="currentColor"/>
</svg>
