<svg width="24" height="24" viewBox="0 0 24 24" fill="currentColor" xmlns="http://www.w3.org/2000/svg">
<path d="M14.25 12C14.25 13.25 13.2188 14.25 12 14.25C10.75 14.25 9.75 13.25 9.75 12C9.75 10.7812 10.75 9.75 12 9.75C13.2188 9.75 14.25 10.7812 14.25 12ZM17.5 9.75C18.7188 9.75 19.75 10.7812 19.75 12C19.75 13.25 18.7188 14.25 17.5 14.25C16.25 14.25 15.25 13.25 15.25 12C15.25 10.7812 16.25 9.75 17.5 9.75ZM6.5 9.75C7.71875 9.75 8.75 10.7812 8.75 12C8.75 13.25 7.71875 14.25 6.5 14.25C5.25 14.25 4.25 13.25 4.25 12C4.25 10.7812 5.25 9.75 6.5 9.75Z" fill="currentColor"/>
</svg>
