<svg width="24" height="24" viewBox="0 0 24 24" fill="currentColor" xmlns="http://www.w3.org/2000/svg">
<path d="M12 4.25C7.71875 4.25 4.25 7.75 4.25 12C4.25 16.2812 7.71875 19.75 12 19.75C16.25 19.75 19.75 16.2812 19.75 12C19.75 7.75 16.25 4.25 12 4.25ZM12 18.75C8.28125 18.75 5.25 15.75 5.25 12C5.25 8.3125 8.25 5.25 12 5.25C15.6875 5.25 18.75 8.28125 18.75 12C18.75 15.7188 15.7188 18.75 12 18.75ZM16.4062 10.1875C16.5625 10.0312 16.5625 9.78125 16.4062 9.65625L16.1562 9.375C16 9.21875 15.75 9.21875 15.625 9.375L10.5 14.4375L8.34375 12.2812C8.21875 12.125 7.96875 12.125 7.8125 12.2812L7.5625 12.5312C7.40625 12.6875 7.40625 12.9062 7.5625 13.0625L10.25 15.7812C10.375 15.9062 10.625 15.9062 10.7812 15.7812L16.4062 10.1875Z" fill="currentColor"/>
</svg>
