<svg width="24" height="24" viewBox="0 0 24 24" fill="currentColor" xmlns="http://www.w3.org/2000/svg">
<path d="M19.75 12C19.75 7.75 16.25 4.25 12 4.25C7.71875 4.25 4.25 7.75 4.25 12C4.25 16.2812 7.71875 19.75 12 19.75C16.25 19.75 19.75 16.2812 19.75 12ZM11.0938 16.125C10.9062 16.3125 10.5625 16.3125 10.375 16.125L7.125 12.875C6.9375 12.6875 6.9375 12.3438 7.125 12.1562L7.84375 11.4688C8.03125 11.25 8.34375 11.25 8.53125 11.4688L10.75 13.6562L15.4375 8.96875C15.625 8.75 15.9375 8.75 16.125 8.96875L16.8438 9.65625C17.0312 9.84375 17.0312 10.1875 16.8438 10.375L11.0938 16.125Z" fill="currentColor"/>
</svg>
