<svg width="24" height="24" viewBox="0 0 24 24" fill="currentColor" xmlns="http://www.w3.org/2000/svg">
<path d="M12 4C15.2812 4 18 6.71875 18 10C18 12.4062 17.1875 13.125 12.5938 19.7188C12.4375 19.9062 12.2188 20 12 20C11.75 20 11.5312 19.9062 11.375 19.7188C6.78125 13.125 6 12.4062 6 10C6 6.71875 8.6875 4 12 4ZM12 18.8125C12.5938 17.9688 13.125 17.1875 13.625 16.5C16.6562 12.1875 17 11.6875 17 10C17 7.25 14.75 5 12 5C9.21875 5 7 7.25 7 10C7 11.6875 7.3125 12.1875 10.3438 16.5C10.8125 17.1875 11.375 17.9375 12 18.8125ZM14.7812 8.21875L15.125 8.5625C15.2188 8.65625 15.2188 8.8125 15.125 8.9375L11.25 12.8125C11.1875 12.875 11.125 12.875 11.0625 12.875C11 12.875 10.9375 12.875 10.875 12.8125L8.84375 10.75C8.75 10.6562 8.75 10.5 8.84375 10.4062L9.1875 10.0625C9.25 10 9.3125 10 9.375 10C9.4375 10 9.5 10 9.53125 10.0625L11.0625 11.5625L14.4375 8.21875C14.4688 8.15625 14.5312 8.15625 14.5938 8.15625C14.6562 8.15625 14.7188 8.1875 14.7812 8.21875Z" fill="currentColor"/>
</svg>
