<svg width="24" height="24" viewBox="0 0 24 24" fill="currentColor" xmlns="http://www.w3.org/2000/svg">
<path d="M12 4C15.2812 4 18 6.71875 18 10C18 12.4062 17.1875 13.125 12.5938 19.7188C12.4375 19.9062 12.2188 20 12 20C11.75 20 11.5312 19.9062 11.375 19.7188C6.78125 13.125 6 12.4062 6 10C6 6.71875 8.6875 4 12 4ZM12 17.9688C12.4375 17.3125 12.8438 16.7188 13.2188 16.2188C16.1562 12.0312 16.5 11.5312 16.5 10C16.5 7.53125 14.4688 5.5 12 5.5C9.5 5.5 7.5 7.53125 7.5 10C7.5 11.5312 7.8125 12.0312 10.75 16.2188C11.125 16.7188 11.5312 17.3125 12 17.9688ZM15.0938 8.8125C15.2188 8.9375 15.2188 9.125 15.0938 9.25L11.4375 12.9062C11.3125 13.0312 11.0938 13.0312 11 12.9062L8.875 10.75C8.75 10.6562 8.75 10.4375 8.875 10.3125L9.59375 9.59375C9.71875 9.46875 9.90625 9.46875 10.0312 9.59375L11.2188 10.7812L13.9375 8.09375C14.0625 7.96875 14.25 7.96875 14.375 8.09375L15.0938 8.8125Z" fill="currentColor"/>
</svg>
