<svg width="24" height="24" viewBox="0 0 24 24" fill="currentColor" xmlns="http://www.w3.org/2000/svg">
<path d="M12 4C15.2812 4 18 6.71875 18 10C18 12.4062 17.1875 13.125 12.5938 19.7188C12.2812 20.125 11.6875 20.125 11.375 19.7188C6.78125 13.125 6 12.4062 6 10C6 6.71875 8.6875 4 12 4ZM15.5625 9.125C15.6875 9 15.6875 8.78125 15.5625 8.65625L14.75 7.84375C14.625 7.6875 14.4062 7.6875 14.25 7.84375L11.2188 10.8438L9.90625 9.53125C9.78125 9.375 9.5625 9.375 9.40625 9.53125L8.59375 10.3125C8.46875 10.4688 8.46875 10.6875 8.59375 10.8125L10.9688 13.1875C11.0938 13.3438 11.3125 13.3438 11.4688 13.1875L15.5625 9.125Z" fill="currentColor"/>
</svg>
