<svg width="24" height="24" viewBox="0 0 24 24" fill="currentColor" xmlns="http://www.w3.org/2000/svg">
<path d="M12 4.25C7.71875 4.25 4.25 7.71875 4.25 12C4.25 16.2812 7.71875 19.75 12 19.75C16.2812 19.75 19.75 16.2812 19.75 12C19.75 7.71875 16.2812 4.25 12 4.25ZM16.5 12.875C16.5 13.0938 16.3125 13.25 16.125 13.25H13.25V16.125C13.25 16.3438 13.0625 16.5 12.875 16.5H11.125C10.9062 16.5 10.75 16.3438 10.75 16.125V13.25H7.875C7.65625 13.25 7.5 13.0938 7.5 12.875V11.125C7.5 10.9375 7.65625 10.75 7.875 10.75H10.75V7.875C10.75 7.6875 10.9062 7.5 11.125 7.5H12.875C13.0625 7.5 13.25 7.6875 13.25 7.875V10.75H16.125C16.3125 10.75 16.5 10.9375 16.5 11.125V12.875Z" fill="currentColor"/>
</svg>
