<svg width="24" height="24" viewBox="0 0 24 24" fill="currentColor" xmlns="http://www.w3.org/2000/svg">
<path d="M18.8125 7.5625H5.1875C5.0625 7.5625 5 7.5 5 7.375V6.625C5 6.53125 5.0625 6.4375 5.1875 6.4375H18.8125C18.9062 6.4375 19 6.53125 19 6.625V7.375C19 7.5 18.9062 7.5625 18.8125 7.5625ZM18.8125 12.5625H5.1875C5.0625 12.5625 5 12.5 5 12.375V11.625C5 11.5312 5.0625 11.4375 5.1875 11.4375H18.8125C18.9062 11.4375 19 11.5312 19 11.625V12.375C19 12.5 18.9062 12.5625 18.8125 12.5625ZM18.8125 17.5625H5.1875C5.0625 17.5625 5 17.5 5 17.375V16.625C5 16.5312 5.0625 16.4375 5.1875 16.4375H18.8125C18.9062 16.4375 19 16.5312 19 16.625V17.375C19 17.5 18.9062 17.5625 18.8125 17.5625Z" fill="currentColor"/>
</svg>
