<svg width="24" height="24" viewBox="0 0 24 24" fill="currentColor" xmlns="http://www.w3.org/2000/svg">
<path d="M5.5 8.125C5.21875 8.125 5 7.90625 5 7.625V6.375C5 6.125 5.21875 5.875 5.5 5.875H18.5C18.75 5.875 19 6.125 19 6.375V7.625C19 7.90625 18.75 8.125 18.5 8.125H5.5ZM5.5 13.125C5.21875 13.125 5 12.9062 5 12.625V11.375C5 11.125 5.21875 10.875 5.5 10.875H18.5C18.75 10.875 19 11.125 19 11.375V12.625C19 12.9062 18.75 13.125 18.5 13.125H5.5ZM5.5 18.125C5.21875 18.125 5 17.9062 5 17.625V16.375C5 16.125 5.21875 15.875 5.5 15.875H18.5C18.75 15.875 19 16.125 19 16.375V17.625C19 17.9062 18.75 18.125 18.5 18.125H5.5Z" fill="currentColor"/>
</svg>
