<svg width="24" height="24" viewBox="0 0 24 24" fill="currentColor" xmlns="http://www.w3.org/2000/svg">
<path d="M15.75 13C15.875 13 16 13.125 16 13.25V13.75C16 13.9062 15.875 14 15.75 14H12.25C12.0938 14 12 13.9062 12 13.75V13.25C12 13.125 12.0938 13 12.25 13H15.75ZM13.75 16C13.875 16 14 16.125 14 16.25V16.75C14 16.9062 13.875 17 13.75 17H12.25C12.0938 17 12 16.9062 12 16.75V16.25C12 16.125 12.0938 16 12.25 16H13.75ZM19.75 7C19.875 7 20 7.125 20 7.25V7.75C20 7.90625 19.875 8 19.75 8H12.25C12.0938 8 12 7.90625 12 7.75V7.25C12 7.125 12.0938 7 12.25 7H19.75ZM17.75 10C17.875 10 18 10.125 18 10.25V10.75C18 10.9062 17.875 11 17.75 11H12.25C12.0938 11 12 10.9062 12 10.75V10.25C12 10.125 12.0938 10 12.25 10H17.75ZM10.1875 15.625L10.375 15.8125C10.4375 15.875 10.5 15.9688 10.5 16.0625C10.5 16.1875 10.4375 16.2812 10.375 16.3438L7.75 18.9062C7.6875 18.9688 7.59375 19.0312 7.46875 19.0312C7.375 19.0312 7.28125 18.9688 7.21875 18.9062L4.59375 16.3438C4.53125 16.2812 4.46875 16.1875 4.46875 16.0625C4.46875 15.9688 4.53125 15.875 4.59375 15.8125L4.78125 15.625C4.84375 15.5625 4.9375 15.5312 5.03125 15.5312C5.125 15.5312 5.21875 15.5625 5.3125 15.625L7 17.25V5.25C7 5.125 7.09375 5 7.25 5H7.75C7.875 5 8 5.125 8 5.25V17.2812L9.6875 15.625C9.75 15.5625 9.84375 15.5 9.9375 15.5C10.0312 15.5 10.125 15.5625 10.1875 15.625Z" fill="currentColor"/>
</svg>
