<svg width="24" height="24" viewBox="0 0 24 24" fill="currentColor" xmlns="http://www.w3.org/2000/svg">
<path d="M7.25 11H4.75C4.3125 11 4 11.3438 4 11.75V19.25C4 19.6875 4.3125 20 4.75 20H7.25C7.65625 20 8 19.6875 8 19.25V11.75C8 11.3438 7.65625 11 7.25 11ZM6 18.75C5.5625 18.75 5.25 18.4375 5.25 18C5.25 17.5938 5.5625 17.25 6 17.25C6.40625 17.25 6.75 17.5938 6.75 18C6.75 18.4375 6.40625 18.75 6 18.75ZM16 6.5625C16 4.25 14.5 4 13.75 4C13.0938 4 12.8125 5.25 12.6875 5.8125C12.5 6.5 12.3438 7.1875 11.875 7.65625C10.875 8.6875 10.3438 9.96875 9.09375 11.1875C9.03125 11.2812 9 11.375 9 11.4688V18.1562C9 18.3438 9.15625 18.5 9.34375 18.5312C9.84375 18.5312 10.5 18.8125 11 19.0312C12 19.4688 13.2188 20 14.7188 20H14.8125C16.1562 20 17.75 20 18.375 19.0938C18.6562 18.7188 18.7188 18.25 18.5625 17.6875C19.0938 17.1562 19.3438 16.1562 19.0938 15.3438C19.625 14.625 19.6875 13.5938 19.375 12.875C19.75 12.5 20 11.9062 19.9688 11.3438C19.9688 10.375 19.1562 9.5 18.125 9.5H14.9375C15.1875 8.625 16 7.875 16 6.5625Z" fill="currentColor"/>
</svg>
