<svg width="24" height="24" viewBox="0 0 24 24" fill="currentColor" xmlns="http://www.w3.org/2000/svg">
<path d="M12 4.25C16.2812 4.25 19.75 7.71875 19.75 12C19.75 16.2812 16.2812 19.75 12 19.75C7.71875 19.75 4.25 16.2812 4.25 12C4.25 7.71875 7.71875 4.25 12 4.25ZM12 18.75C15.7188 18.75 18.75 15.7188 18.75 12C18.75 8.28125 15.6875 5.25 12 5.25C8.25 5.25 5.25 8.3125 5.25 12C5.25 15.75 8.28125 18.75 12 18.75ZM14.9375 9.84375L12.7812 12L14.9375 14.1875C15.0938 14.3125 15.0938 14.5625 14.9375 14.7188L14.6875 14.9688C14.5312 15.125 14.3125 15.125 14.1562 14.9688L12 12.8125L9.8125 14.9688C9.6875 15.125 9.4375 15.125 9.28125 14.9688L9.03125 14.7188C8.875 14.5625 8.875 14.3125 9.03125 14.1875L11.1875 12L9.03125 9.84375C8.875 9.6875 8.875 9.46875 9.03125 9.3125L9.28125 9.0625C9.4375 8.90625 9.6875 8.90625 9.8125 9.0625L12 11.2188L14.1562 9.0625C14.3125 8.90625 14.5312 8.90625 14.6875 9.0625L14.9375 9.3125C15.0938 9.46875 15.0938 9.6875 14.9375 9.84375Z" fill="currentColor"/>
</svg>
