<svg width="24" height="24" viewBox="0 0 24 24" fill="currentColor" xmlns="http://www.w3.org/2000/svg">
<path d="M21 15C21.5312 15 22 15.4688 22 16V16.5938C22 18.4688 20.4375 20 18.5625 20H8.8125C7.25 19.9062 6 18.625 6 17V10H3C2.4375 10 2 9.5625 2 9V6.5C2 5.125 3.09375 4 4.5 4H15.5C17.4062 4 19 5.59375 19 7.5V15H21ZM6 9V6.5C6 5.6875 5.3125 5 4.5 5C3.65625 5 3 5.6875 3 6.5V9H6ZM11 17V16C11 15.4688 11.4375 15 12 15H18V7.5C18 6.125 16.875 5 15.5 5H6.46875C6.8125 5.4375 7 5.9375 7 6.5V17C7 18.125 7.875 19 9 19C10.0938 19 11 18.125 11 17ZM21 16.5938V16H12V17C12 17.7812 11.6875 18.4688 11.2188 19H18.5625C19.9062 19 21 17.9375 21 16.5938Z" fill="currentColor"/>
</svg>
