<svg width="24" height="24" viewBox="0 0 24 24" fill="currentColor" xmlns="http://www.w3.org/2000/svg">
<path d="M21 14.5C21.5312 14.5 22 14.9688 22 15.5V16.3438C22 18.375 20.3438 20 18.3125 20H8.5625C6.78125 19.9062 5.5 18.3438 5.5 16.625V9.5H3C2.4375 9.5 2 9.0625 2 8.5V6.5C2 5.125 3.09375 4 4.5 4H16.25C17.75 4 19 5.25 19 6.75V14.5H21ZM3.5 8H5.5V6.5C5.5 5.96875 5.03125 5.5 4.5 5.5C3.9375 5.5 3.5 5.96875 3.5 6.5V8ZM7 16.625C7 19.2188 10.5 19 10.5 16.75V15.5C10.5 14.9688 10.9375 14.5 11.5 14.5H17.5V6.75C17.5 6.0625 16.9375 5.5 16.25 5.5H6.78125C6.90625 5.8125 7 6.15625 7 6.5V16.625ZM20.5 16.3438V16H12V16.75C12 17.4062 11.7812 18 11.4688 18.5H18.3125C19.5 18.5 20.5 17.5312 20.5 16.3438Z" fill="currentColor"/>
</svg>
